<?xml version="1.0" standalone="no"?>
<!DOCTYPE svg PUBLIC "-//W3C//DTD SVG 20010904//EN"
 "http://www.w3.org/TR/2001/REC-SVG-20010904/DTD/svg10.dtd">
<svg version="1.0" xmlns="http://www.w3.org/2000/svg"
 width="512.000000pt" height="512.000000pt" viewBox="0 0 512.000000 512.000000"
 preserveAspectRatio="xMidYMid meet">
<metadata>
Created by potrace 1.14, written by Peter Selinger 2001-2017
</metadata>
<g transform="translate(0.000000,512.000000) scale(0.100000,-0.100000)"
fill="#000000" stroke="none">
<path d="M2425 5113 c-252 -44 -428 -130 -593 -291 -147 -145 -244 -285 -370
-537 -48 -97 -141 -314 -148 -345 0 -3 -4 -12 -7 -20 -4 -8 -56 -159 -116
-335 -60 -176 -143 -419 -185 -540 -63 -183 -96 -291 -131 -425 -33 -131 -72
-348 -81 -455 -3 -33 -8 -67 -11 -75 -2 -8 -6 -103 -8 -210 -3 -179 1 -256 20
-380 4 -25 9 -54 10 -65 8 -54 52 -204 80 -270 7 -16 16 -40 19 -52 13 -42 85
-182 137 -265 281 -451 742 -752 1269 -829 135 -20 444 -16 544 6 11 3 32 7
46 9 14 2 62 14 107 25 391 101 748 340 985 661 105 143 193 304 248 456 36
99 77 253 85 324 3 25 10 72 14 105 17 115 3 498 -24 665 -46 284 -105 505
-227 855 -33 94 -78 222 -99 285 -22 63 -43 122 -46 130 -4 8 -7 17 -8 20 -93
322 -263 727 -394 940 -206 334 -478 548 -756 596 -22 4 -49 9 -60 11 -24 6
-272 11 -300 6z"/>
</g>
</svg>
