<?xml version="1.0" standalone="no"?>
<!DOCTYPE svg PUBLIC "-//W3C//DTD SVG 20010904//EN"
 "http://www.w3.org/TR/2001/REC-SVG-20010904/DTD/svg10.dtd">
<svg version="1.0" xmlns="http://www.w3.org/2000/svg"
 width="1820.000000pt" height="1820.000000pt" viewBox="0 0 1820.000000 1820.000000"
 preserveAspectRatio="xMidYMid meet">
<metadata>
Created by potrace 1.14, written by Peter Selinger 2001-2017
</metadata>
<g transform="translate(0.000000,1820.000000) scale(0.100000,-0.100000)"
fill="#000000" stroke="none">
<path d="M12733 15983 c4 -5 -39 -10 -111 -11 -107 -2 -197 -7 -197 -12 0 -1
-16 -3 -35 -5 -19 -2 -35 -4 -35 -5 0 -1 -20 -4 -45 -6 -25 -2 -58 -6 -75 -9
-16 -4 -41 -8 -55 -9 -14 -2 -33 -7 -42 -10 -9 -4 -22 -8 -30 -10 -7 -1 -17
-4 -23 -7 -5 -4 -18 -5 -27 -4 -10 2 -18 -1 -18 -6 0 -6 -5 -7 -11 -3 -6 3
-14 2 -18 -4 -3 -6 -18 -13 -31 -15 -14 -2 -38 -9 -53 -16 -16 -6 -33 -9 -37
-6 -5 3 -13 -3 -19 -12 -6 -10 -11 -14 -11 -9 0 5 -7 3 -15 -4 -8 -7 -22 -10
-30 -6 -8 3 -15 1 -15 -4 0 -9 -39 -26 -52 -22 -5 1 -8 -3 -8 -9 0 -5 -4 -7
-10 -4 -5 3 -10 1 -10 -6 0 -7 -3 -9 -7 -6 -3 4 -12 2 -20 -4 -7 -6 -13 -9
-13 -5 0 3 -9 -2 -20 -12 -12 -9 -25 -18 -30 -18 -6 -1 -15 -2 -21 -3 -5 0 -7
-6 -3 -13 5 -8 2 -9 -9 -5 -10 4 -17 1 -17 -5 0 -6 -3 -8 -6 -5 -4 4 -19 -2
-34 -13 -16 -11 -31 -20 -35 -20 -3 0 -13 -6 -20 -12 -25 -23 -40 -33 -67 -47
-16 -8 -28 -20 -28 -28 0 -7 -3 -12 -7 -11 -13 4 -83 -46 -83 -59 0 -7 -7 -13
-15 -13 -8 0 -15 -7 -15 -15 0 -8 -4 -14 -8 -12 -11 3 -78 -64 -75 -74 2 -5
-3 -6 -10 -3 -8 3 -19 -6 -25 -21 -7 -14 -17 -23 -22 -20 -6 4 -9 1 -8 -7 2
-7 -4 -12 -12 -10 -8 2 -12 1 -8 -3 4 -4 -13 -27 -36 -51 -24 -24 -41 -45 -39
-48 3 -2 -5 -7 -16 -11 -12 -4 -21 -15 -21 -26 0 -11 -4 -18 -8 -15 -10 6 -30
-28 -37 -61 -2 -13 1 -23 6 -23 6 0 8 -4 5 -9 -3 -4 6 -13 19 -19 14 -7 25
-16 25 -22 0 -5 6 -10 14 -10 8 0 22 -7 30 -16 9 -8 16 -12 16 -8 0 4 8 -2 18
-13 22 -25 63 -48 81 -44 7 1 10 -2 7 -7 -3 -5 3 -12 14 -15 13 -3 18 -1 13 6
-4 7 1 6 10 -2 15 -12 21 -9 18 11 0 4 5 5 12 3 6 -3 47 13 91 35 43 22 82 40
88 40 5 0 16 7 25 15 8 8 19 13 24 10 5 -4 9 -1 9 6 0 7 3 9 7 6 3 -4 13 -1
21 6 13 10 15 9 8 -3 -6 -12 -4 -11 6 1 7 9 19 14 25 12 7 -3 16 2 19 11 3 9
10 13 15 10 6 -3 16 0 24 6 8 7 15 9 15 4 0 -5 5 -2 10 6 9 13 10 13 10 0 1
-12 3 -11 11 3 6 9 14 15 20 12 5 -4 9 -1 9 5 0 6 4 9 9 5 5 -3 12 -1 16 5 4
6 11 8 16 5 5 -4 9 -1 9 5 0 6 4 9 9 5 5 -3 12 -1 16 5 3 5 15 10 26 10 10 0
19 4 19 9 0 4 11 7 25 6 14 -2 25 0 25 3 0 4 10 8 23 8 40 3 81 15 89 27 6 9
8 9 8 -1 0 -8 5 -10 13 -5 12 8 46 13 82 14 10 0 25 5 32 11 9 8 13 7 13 -2 0
-9 4 -9 13 -3 6 6 22 9 35 8 12 -1 22 1 22 4 0 3 24 6 53 5 28 0 58 4 65 9 6
5 12 6 12 1 0 -10 66 -9 93 1 9 4 17 3 17 -2 0 -5 7 -10 15 -10 8 0 15 3 15 6
0 3 16 6 35 6 19 0 35 -2 35 -5 0 -8 63 -5 77 3 6 4 14 3 18 -3 3 -5 11 -10
16 -10 6 0 7 5 3 11 -5 8 -1 8 14 0 14 -8 23 -8 27 -1 5 8 11 8 20 0 7 -6 25
-9 39 -6 14 3 29 0 32 -6 4 -6 10 -5 16 3 7 11 11 11 15 2 2 -7 9 -13 14 -13
6 0 7 6 3 13 -5 8 -2 8 9 -2 9 -7 17 -10 17 -6 0 4 8 1 17 -6 14 -12 16 -12 8
0 -6 11 -5 12 6 5 15 -9 26 -12 79 -18 19 -2 35 -5 35 -6 0 -2 43 -10 68 -12
9 -1 17 -6 17 -10 0 -4 9 -8 21 -8 29 0 59 -18 59 -35 0 -13 -34 -39 -53 -40
-4 0 -11 -4 -15 -10 -4 -5 -23 -12 -42 -13 -19 -2 -41 -9 -49 -15 -12 -10 -13
-9 -6 3 7 12 6 13 -6 3 -14 -11 -33 -17 -104 -30 -16 -3 -33 -10 -37 -16 -6
-9 -8 -8 -8 1 0 8 -5 10 -12 5 -7 -4 -20 -9 -28 -10 -36 -6 -65 -12 -65 -13 0
-1 -11 -4 -25 -6 -30 -4 -65 -12 -65 -14 0 -1 -16 -3 -34 -6 -19 -2 -39 -10
-43 -17 -6 -9 -8 -9 -8 1 0 8 -5 10 -12 5 -14 -8 -30 -12 -70 -16 -16 -1 -28
-6 -28 -11 0 -4 -6 -6 -14 -3 -8 3 -17 3 -20 -1 -7 -7 -31 -13 -58 -15 -10 -1
-18 -4 -18 -8 0 -3 -13 -5 -30 -4 -16 1 -30 -1 -30 -5 0 -7 -8 -9 -58 -14 -19
-1 -37 -7 -40 -12 -4 -5 -19 -9 -34 -9 -16 1 -28 -3 -28 -7 0 -4 -7 -5 -15 -2
-8 4 -15 2 -15 -3 0 -5 -6 -10 -12 -10 -7 0 -26 -4 -43 -8 -16 -4 -38 -7 -47
-8 -10 -1 -18 -5 -18 -10 0 -5 -7 -7 -15 -3 -8 3 -15 1 -15 -5 0 -5 -6 -9 -12
-8 -7 1 -26 -3 -41 -9 -16 -7 -33 -12 -38 -12 -5 0 -9 -6 -9 -12 0 -10 -2 -10
-9 0 -7 11 -10 10 -15 -3 -3 -9 -12 -15 -19 -12 -6 2 -19 -2 -29 -10 -9 -8
-23 -15 -31 -17 -8 -1 -26 -10 -42 -20 -15 -10 -24 -12 -19 -5 4 7 -8 2 -27
-11 -19 -14 -36 -24 -39 -24 -3 1 -15 -2 -28 -7 -13 -5 -28 -9 -33 -9 -6 0 -7
-4 -4 -10 3 -5 -1 -10 -10 -10 -9 0 -23 -7 -31 -15 -9 -8 -13 -15 -9 -15 4 0
-1 -7 -9 -16 -18 -18 -21 -34 -5 -34 6 0 8 -9 4 -21 -5 -14 -4 -19 4 -15 7 5
9 1 5 -8 -4 -10 -1 -16 10 -16 8 0 18 -11 22 -25 3 -14 10 -25 15 -25 5 0 9
-5 9 -11 0 -7 10 -20 22 -30 11 -11 17 -19 13 -19 -4 0 5 -11 20 -24 16 -14
32 -23 37 -20 4 3 5 -2 2 -10 -4 -11 0 -16 10 -16 9 0 16 -4 16 -10 0 -15 33
-50 47 -50 7 0 13 -6 13 -14 0 -12 25 -29 33 -23 2 1 18 -13 36 -31 18 -17 37
-29 43 -26 7 4 8 2 4 -4 -3 -6 3 -16 15 -22 17 -10 20 -9 14 2 -3 7 0 5 8 -4
8 -10 17 -15 20 -11 4 3 7 1 7 -6 0 -7 4 -9 10 -6 5 3 20 -1 32 -8 13 -8 33
-14 45 -13 12 2 20 -1 17 -6 -5 -7 19 -12 54 -11 6 1 12 -3 12 -7 0 -4 12 -8
28 -8 55 -2 134 -11 139 -16 3 -3 14 -1 24 4 12 7 19 6 21 -2 3 -8 10 -8 27 2
13 6 21 8 17 2 -3 -6 4 -9 18 -8 13 0 22 4 20 7 -2 3 21 5 51 3 37 -2 55 1 55
9 0 7 4 6 10 -3 5 -8 10 -10 10 -5 0 6 22 10 50 9 27 0 50 4 50 9 0 5 9 7 20
4 11 -3 22 -1 25 3 3 5 14 7 25 5 11 -2 20 0 20 5 0 5 9 7 20 5 11 -2 22 0 25
5 3 5 12 7 20 3 8 -3 15 0 15 7 0 7 6 10 14 7 7 -3 24 2 37 10 17 13 20 13 14
2 -8 -12 -6 -12 8 -1 9 8 21 11 27 7 5 -3 10 -1 10 5 0 6 4 9 9 5 5 -3 13 0
16 6 4 5 13 8 21 5 8 -3 14 -1 14 4 0 6 9 10 20 10 11 0 20 6 20 13 0 8 4 7
10 -3 7 -12 10 -12 10 -1 0 8 6 11 15 7 9 -3 18 1 21 9 4 8 10 12 15 9 5 -3 9
1 9 8 0 9 3 9 10 -2 7 -11 10 -11 10 -2 0 7 4 11 9 8 5 -3 14 1 21 9 7 8 21
15 31 15 11 0 19 5 19 11 0 5 5 7 10 4 6 -3 10 -1 10 5 0 6 4 9 9 5 5 -3 15 0
23 7 7 7 20 14 28 16 8 2 24 11 34 20 15 13 18 14 12 2 -7 -13 -6 -13 6 0 7 8
20 16 28 18 8 2 18 9 22 15 4 7 8 8 8 3 0 -5 7 -3 15 4 8 7 12 16 9 21 -3 5 1
6 9 3 8 -3 22 2 31 11 9 9 16 13 16 8 0 -4 7 1 15 11 8 11 15 16 15 11 0 -5 7
0 15 11 8 10 15 15 15 11 0 -5 7 -1 16 7 8 9 20 13 26 10 7 -4 8 -2 4 4 -4 7
3 17 18 23 14 7 22 17 19 23 -4 6 1 5 11 -3 9 -8 16 -9 14 -3 -2 6 6 18 17 27
11 9 13 13 5 9 -8 -4 -12 -3 -7 1 4 5 17 10 29 12 25 4 40 22 31 37 -3 5 -1 6
5 2 6 -4 19 2 29 14 10 11 22 20 28 20 6 0 31 23 55 50 24 28 51 50 59 50 8 0
12 3 9 6 -7 6 39 54 52 54 6 0 10 4 10 9 0 13 59 71 72 71 6 0 9 3 6 6 -4 3
14 25 38 49 24 25 44 47 44 50 0 4 15 21 34 38 18 18 36 42 40 54 4 13 10 22
14 20 4 -1 8 2 9 7 1 5 6 12 11 15 16 10 84 104 70 96 -7 -3 -5 0 5 8 9 8 17
19 17 26 0 6 3 11 8 11 4 0 16 12 26 27 12 17 14 23 5 18 -8 -4 -2 4 13 17 15
14 25 28 22 31 -4 3 1 13 9 22 9 9 13 23 10 32 -4 10 -2 14 4 10 5 -4 9 7 9
26 -1 35 -57 96 -88 97 -10 0 -18 4 -18 10 0 5 -7 7 -15 4 -8 -4 -15 -2 -15 3
0 11 -80 50 -92 46 -5 -2 -8 2 -8 8 0 5 -5 7 -10 4 -6 -3 -13 0 -16 9 -3 8
-12 12 -20 9 -8 -3 -14 1 -14 8 0 7 -3 10 -6 6 -4 -3 -20 1 -36 9 -16 8 -33
12 -39 9 -5 -4 -8 -1 -7 7 2 8 -4 12 -14 10 -10 -2 -18 2 -18 8 0 6 -4 9 -9 5
-5 -3 -16 1 -24 9 -8 8 -17 13 -20 10 -3 -3 -20 1 -39 10 -18 8 -40 16 -48 18
-8 2 -17 5 -20 8 -12 12 -103 39 -113 33 -6 -3 -7 -1 -3 5 5 8 -1 12 -14 12
-12 0 -19 4 -16 9 4 5 -2 8 -11 6 -10 -1 -27 5 -37 14 -14 11 -17 12 -11 2 6
-11 4 -13 -11 -6 -10 4 -30 10 -44 12 -14 3 -30 12 -37 20 -7 9 -13 11 -18 3
-3 -5 -11 -8 -16 -4 -5 3 -7 8 -5 12 2 4 -15 8 -37 9 -61 4 -67 5 -67 16 0 5
-9 7 -20 4 -11 -3 -20 -1 -20 5 0 6 -6 8 -14 5 -7 -3 -24 2 -37 10 -15 11 -20
12 -14 3 6 -10 4 -11 -11 -5 -10 4 -28 8 -39 9 -11 1 -25 4 -31 8 -6 4 -29 8
-52 9 -23 2 -42 5 -42 8 0 4 -28 7 -61 9 -34 1 -67 6 -73 10 -6 3 -36 7 -66 9
-30 1 -55 2 -55 3 0 1 -13 3 -30 3 -16 1 -36 6 -44 11 -9 6 -12 5 -8 -1z"/>
<path d="M9183 15143 c4 -6 3 -14 -3 -18 -5 -3 -10 -3 -10 2 0 4 -54 8 -120 8
-66 1 -120 -3 -120 -8 0 -4 -5 -5 -12 -1 -7 5 -31 7 -53 5 -22 -2 -54 -4 -72
-5 -17 0 -35 -4 -39 -8 -4 -4 -13 -3 -21 3 -7 6 -13 8 -13 3 0 -5 -19 -10 -41
-11 -23 -2 -48 -8 -55 -14 -11 -9 -14 -9 -14 0 0 9 -5 9 -21 0 -12 -6 -30 -9
-40 -6 -10 3 -19 1 -19 -4 0 -5 -3 -8 -7 -7 -14 3 -78 -14 -92 -26 -12 -9 -13
-8 -7 2 7 11 4 12 -12 3 -12 -6 -32 -12 -46 -13 -15 -1 -26 -6 -26 -10 0 -4
-11 -8 -25 -8 -14 0 -25 -4 -25 -9 0 -6 -9 -8 -20 -6 -11 2 -20 -1 -20 -6 0
-6 -4 -8 -9 -4 -5 3 -12 1 -16 -5 -4 -6 -10 -8 -15 -5 -5 3 -11 1 -15 -5 -3
-5 -15 -10 -26 -10 -11 0 -18 -4 -14 -9 3 -6 -6 -8 -20 -5 -14 2 -25 0 -25 -5
0 -5 -10 -12 -22 -16 -31 -10 -26 -8 -83 -35 -27 -13 -53 -28 -56 -32 -3 -5
-16 -10 -27 -11 -12 -1 -22 -7 -22 -15 0 -7 -4 -10 -10 -7 -5 3 -30 -7 -54
-24 -24 -17 -46 -27 -50 -24 -3 4 -6 1 -6 -6 0 -7 -13 -17 -30 -22 -16 -6 -30
-15 -30 -21 0 -6 -7 -7 -16 -4 -8 3 -13 2 -10 -2 3 -4 -13 -19 -35 -32 -21
-14 -39 -28 -39 -32 0 -5 -4 -7 -9 -5 -5 1 -18 -9 -30 -22 -12 -13 -21 -21
-21 -18 0 3 -12 -5 -26 -18 -15 -14 -31 -22 -37 -18 -6 4 -8 0 -4 -11 4 -9 3
-15 -2 -12 -4 3 -16 -3 -26 -14 -10 -11 -22 -17 -26 -14 -5 3 -9 -2 -9 -10 0
-15 -13 -21 -35 -16 -5 1 -7 -1 -3 -5 8 -8 -117 -135 -133 -135 -5 0 -8 -4 -5
-8 5 -8 -38 -53 -46 -49 -1 1 -2 0 -1 -2 5 -9 -20 -31 -28 -25 -5 3 -8 2 -7
-3 3 -8 -18 -36 -54 -75 -10 -10 -18 -23 -18 -29 0 -5 -5 -7 -12 -3 -8 5 -9 2
-4 -12 4 -10 4 -15 0 -12 -8 8 -34 -16 -34 -31 0 -5 -8 -15 -17 -20 -10 -6
-14 -11 -10 -11 4 0 -4 -11 -19 -25 -15 -14 -24 -25 -19 -25 4 0 -7 -17 -24
-37 -50 -60 -52 -63 -44 -63 4 0 0 -7 -11 -15 -10 -7 -15 -18 -11 -24 3 -6 3
-11 -2 -11 -10 -1 -59 -80 -55 -91 1 -5 -6 -9 -15 -9 -14 0 -15 -2 -5 -9 11
-7 10 -9 -3 -15 -9 -3 -13 -10 -10 -16 3 -5 1 -10 -4 -10 -6 0 -11 -7 -11 -15
0 -8 -5 -15 -12 -15 -6 0 -8 -3 -5 -6 3 -4 1 -16 -5 -28 -7 -11 -11 -24 -10
-28 1 -5 -5 -8 -14 -8 -8 0 -13 -4 -9 -9 3 -6 -6 -34 -20 -62 -14 -29 -25 -58
-25 -65 0 -7 -5 -14 -10 -16 -9 -3 -20 -35 -22 -65 -1 -7 -6 -13 -11 -13 -6 0
-7 -3 -4 -6 4 -4 -3 -20 -14 -35 -11 -16 -16 -29 -11 -29 6 0 6 -10 -1 -24 -7
-13 -16 -22 -22 -19 -5 4 -7 3 -3 -2 4 -4 1 -23 -7 -41 -8 -19 -11 -34 -8 -34
3 0 -1 -10 -9 -22 -8 -13 -14 -33 -13 -45 1 -12 -2 -20 -6 -18 -4 3 -10 -12
-14 -33 -4 -20 -11 -43 -17 -49 -6 -7 -8 -20 -4 -28 3 -9 2 -13 -4 -10 -6 3
-10 3 -11 -2 -2 -19 -8 -50 -14 -73 -4 -14 -7 -31 -7 -37 -1 -7 -6 -13 -11
-13 -5 0 -7 -7 -4 -15 4 -8 2 -17 -4 -20 -5 -4 -7 -11 -4 -16 4 -5 2 -9 -4 -9
-6 0 -8 -6 -5 -14 3 -7 -2 -20 -11 -29 -9 -10 -11 -18 -5 -22 5 -3 10 -11 10
-16 0 -6 -4 -8 -9 -5 -5 3 -12 -16 -16 -44 -4 -27 -11 -52 -16 -56 -5 -3 -9
-16 -9 -30 0 -13 -6 -24 -12 -24 -9 0 -8 -4 2 -10 12 -8 12 -10 1 -10 -8 0
-12 -3 -8 -6 3 -4 0 -21 -8 -39 -7 -19 -11 -36 -7 -39 3 -3 0 -6 -5 -6 -6 0
-10 -8 -9 -17 2 -10 -1 -25 -5 -33 -9 -18 -23 -72 -21 -82 1 -5 -3 -8 -8 -8
-6 0 -10 -6 -9 -12 3 -21 -13 -78 -22 -78 -4 0 -6 -9 -4 -20 2 -11 0 -20 -4
-20 -7 0 -34 -93 -31 -106 1 -4 -3 -10 -10 -14 -6 -4 -12 -13 -13 -21 -2 -8
-6 -20 -10 -26 -5 -7 -5 -13 0 -13 4 0 3 -4 -4 -8 -6 -4 -13 -16 -15 -27 -1
-11 -7 -23 -11 -26 -4 -3 -9 -18 -11 -33 -1 -14 -11 -33 -22 -41 -12 -9 -14
-14 -6 -15 7 0 10 -5 7 -10 -4 -6 -11 -7 -17 -4 -6 4 -8 2 -4 -4 7 -11 -12
-63 -28 -74 -5 -3 -10 -15 -11 -25 -4 -31 -9 -47 -23 -61 -7 -8 -10 -17 -7
-22 3 -5 1 -10 -4 -12 -5 -1 -11 -12 -13 -23 -1 -11 -11 -28 -20 -39 -9 -10
-15 -27 -13 -37 2 -11 0 -17 -5 -14 -4 3 -11 -8 -15 -25 -4 -16 -11 -30 -16
-30 -5 0 -8 -3 -7 -7 4 -15 -13 -53 -23 -53 -6 0 -8 -4 -4 -9 3 -5 1 -12 -5
-16 -6 -4 -8 -10 -5 -15 3 -5 -5 -19 -17 -31 -13 -12 -18 -19 -11 -15 8 4 8 0
0 -19 -7 -14 -16 -25 -20 -25 -5 0 -5 -4 -2 -10 3 -5 2 -10 -4 -10 -5 0 -8 -9
-6 -20 2 -11 0 -18 -5 -15 -8 5 -26 -32 -22 -47 1 -5 -3 -8 -9 -8 -5 0 -7 -5
-4 -10 3 -6 -1 -13 -9 -16 -9 -3 -16 -15 -16 -25 0 -10 -4 -19 -10 -19 -5 0
-7 -7 -4 -15 3 -8 0 -17 -8 -20 -8 -3 -15 -15 -15 -27 -1 -12 -8 -25 -15 -29
-7 -5 -8 -9 -3 -9 7 0 7 -3 0 -8 -16 -12 -36 -52 -30 -61 3 -5 -2 -12 -11 -15
-9 -3 -14 -13 -10 -21 3 -8 -2 -18 -10 -23 -8 -5 -16 -18 -17 -30 0 -12 -3
-19 -6 -17 -6 7 -32 -46 -26 -55 3 -4 -2 -10 -10 -14 -8 -3 -15 -15 -15 -26 0
-11 -4 -20 -9 -20 -8 0 -24 -37 -22 -52 1 -5 -3 -8 -8 -8 -5 0 -15 -16 -21
-35 -6 -19 -16 -35 -22 -35 -6 0 -8 -3 -5 -6 4 -4 -2 -19 -12 -33 -9 -14 -23
-42 -31 -61 -7 -19 -18 -39 -24 -45 -6 -5 -11 -17 -11 -25 0 -8 -5 -20 -13
-25 -7 -6 -14 -18 -15 -27 -2 -9 -9 -24 -17 -34 -13 -16 -13 -17 0 -10 9 4 8
2 -2 -7 -10 -8 -15 -17 -11 -20 3 -4 2 -7 -4 -7 -10 0 -26 -36 -24 -52 1 -5
-4 -8 -9 -8 -6 0 -10 -9 -10 -20 0 -11 -4 -20 -10 -20 -5 0 -7 -7 -4 -15 4 -8
-1 -17 -10 -21 -9 -3 -13 -10 -10 -15 3 -5 0 -9 -6 -9 -6 0 -8 -4 -5 -10 3 -5
1 -10 -5 -10 -6 0 -9 -4 -5 -9 3 -5 0 -13 -6 -16 -5 -4 -8 -14 -5 -22 3 -8 1
-11 -4 -8 -9 5 -11 1 -10 -20 1 -3 -6 -13 -15 -22 -9 -8 -14 -22 -11 -30 3 -7
-1 -16 -9 -19 -8 -4 -13 -10 -10 -14 3 -5 -2 -15 -10 -23 -8 -9 -17 -24 -19
-34 -9 -40 -19 -63 -27 -63 -5 0 -9 -6 -9 -13 0 -7 -9 -31 -19 -53 -11 -21
-17 -42 -14 -46 2 -5 -1 -8 -6 -8 -6 0 -11 -9 -11 -20 0 -11 -5 -20 -10 -20
-6 0 -9 -3 -9 -7 1 -5 -4 -22 -10 -40 -7 -18 -12 -35 -11 -39 1 -3 -7 -12 -17
-19 -10 -7 -15 -17 -11 -20 4 -4 2 -17 -4 -29 -7 -11 -13 -23 -14 -26 -1 -3
-5 -15 -9 -27 -4 -13 -12 -23 -17 -23 -5 0 -6 -5 -3 -10 4 -6 -3 -27 -14 -46
-12 -19 -15 -32 -9 -28 10 6 11 4 1 -7 -7 -7 -13 -21 -13 -32 0 -10 -4 -16 -8
-13 -4 2 -9 -7 -10 -22 -1 -15 -7 -29 -12 -30 -6 -2 -8 -8 -4 -13 3 -5 0 -9
-6 -9 -6 0 -8 -5 -5 -10 4 -6 2 -17 -4 -24 -6 -7 -12 -21 -14 -32 -4 -17 -9
-33 -25 -74 -3 -8 -6 -23 -7 -32 -1 -10 -8 -25 -15 -33 -7 -9 -10 -18 -7 -22
4 -3 2 -12 -4 -20 -6 -7 -8 -13 -4 -13 4 0 3 -6 -3 -13 -6 -7 -13 -25 -16 -40
-2 -15 -7 -30 -10 -35 -5 -9 -17 -55 -21 -87 -1 -11 -8 -33 -15 -50 -7 -16
-13 -39 -15 -50 -1 -11 -3 -20 -4 -20 -2 0 -7 -15 -14 -47 -1 -7 -7 -19 -11
-27 -7 -10 -5 -12 3 -6 10 6 11 3 2 -13 -6 -11 -12 -35 -15 -53 -2 -19 -8 -45
-14 -59 -5 -14 -7 -31 -5 -37 3 -7 0 -13 -5 -13 -5 0 -8 -11 -7 -25 2 -14 -1
-25 -6 -25 -4 0 -6 -7 -3 -15 4 -8 0 -23 -7 -32 -12 -14 -12 -16 1 -8 13 8 13
7 1 -8 -7 -9 -10 -17 -6 -17 4 0 3 -6 -2 -12 -5 -7 -9 -20 -8 -28 1 -8 -3 -23
-7 -32 -6 -12 -5 -18 3 -18 8 0 8 -4 1 -13 -6 -7 -12 -31 -15 -55 -2 -23 -7
-45 -10 -49 -4 -3 -1 -13 6 -21 10 -13 9 -14 -2 -8 -11 7 -13 1 -9 -28 2 -20
1 -36 -3 -36 -5 0 -6 -9 -4 -20 2 -11 1 -20 -3 -20 -4 0 -8 -28 -9 -62 -2 -35
-7 -64 -13 -66 -8 -3 -7 -8 0 -18 7 -7 8 -19 4 -26 -12 -18 -11 -58 1 -58 6 0
7 -3 0 -8 -12 -9 -13 -42 -1 -61 7 -10 6 -12 -3 -6 -9 5 -12 0 -10 -16 2 -13
0 -30 -4 -36 -5 -8 -3 -13 4 -13 9 0 9 -3 0 -14 -8 -10 -9 -16 -1 -21 7 -4 7
-12 0 -26 -8 -14 -7 -19 2 -19 8 0 9 -3 3 -8 -5 -4 -10 -16 -10 -27 0 -11 5
-23 10 -27 6 -5 6 -8 -2 -8 -6 0 -9 -9 -5 -22 4 -16 2 -19 -9 -13 -11 6 -12 5
-1 -6 6 -7 12 -21 12 -32 0 -12 -4 -16 -12 -11 -10 6 -10 4 -2 -7 7 -8 12 -71
13 -158 1 -79 4 -147 6 -152 3 -4 0 -11 -6 -15 -8 -4 -7 -9 2 -15 12 -8 12
-10 0 -18 -7 -5 -9 -11 -4 -14 5 -3 8 -37 8 -76 0 -39 3 -71 8 -71 10 0 4 -23
-8 -32 -6 -5 -5 -8 3 -8 8 0 12 -16 12 -44 0 -25 5 -48 10 -51 7 -4 7 -13 0
-26 -7 -13 -7 -19 0 -19 5 0 8 -10 6 -22 -2 -13 1 -29 6 -35 7 -9 7 -13 -2
-13 -9 0 -7 -7 6 -22 10 -12 13 -18 7 -14 -8 4 -13 1 -13 -8 0 -9 4 -16 10
-16 6 0 6 -9 0 -25 -6 -17 -6 -25 1 -25 6 0 9 -6 6 -12 -2 -7 0 -21 5 -30 6
-13 5 -18 -4 -18 -8 0 -5 -5 5 -11 14 -8 16 -14 6 -25 -6 -8 -7 -14 -2 -14 5
0 10 -6 10 -12 0 -15 10 -73 18 -108 4 -14 8 -37 9 -52 2 -15 8 -34 14 -41 7
-8 9 -17 5 -21 -4 -4 -1 -11 7 -16 11 -7 11 -10 2 -10 -10 0 -10 -6 1 -27 7
-16 13 -37 13 -48 -1 -11 6 -26 14 -33 13 -12 13 -13 0 -6 -13 7 -13 5 -2 -9
8 -9 11 -21 7 -27 -3 -5 -2 -10 2 -10 5 0 9 -10 10 -22 1 -11 6 -24 11 -27 5
-3 8 -14 6 -23 -1 -10 2 -18 7 -18 4 0 6 -7 3 -15 -4 -8 -1 -15 5 -15 6 0 8
-6 5 -14 -3 -8 0 -17 5 -21 6 -3 8 -11 5 -17 -4 -6 -2 -13 5 -17 6 -4 12 -19
13 -34 1 -15 6 -27 11 -27 4 0 6 -4 2 -9 -3 -5 -1 -12 5 -16 6 -4 8 -11 5 -16
-4 -5 0 -12 8 -15 9 -3 13 -13 10 -25 -3 -11 0 -19 8 -19 7 0 9 -3 6 -7 -4 -3
-1 -13 6 -21 10 -13 9 -15 -3 -8 -9 4 -8 1 2 -7 10 -8 18 -24 18 -36 0 -11 5
-21 11 -21 5 0 7 -4 4 -10 -3 -5 -1 -10 6 -10 7 0 9 -3 6 -7 -4 -3 -1 -13 6
-21 10 -13 9 -14 -3 -7 -12 7 -11 4 1 -11 10 -10 29 -47 45 -81 15 -35 31 -63
35 -63 5 0 6 -6 3 -14 -3 -7 2 -21 11 -30 9 -9 13 -16 9 -16 -3 0 -1 -6 5 -13
6 -8 7 -18 3 -22 -4 -5 -1 -5 6 -1 6 4 12 4 13 -1 3 -31 10 -49 24 -59 12 -9
13 -13 3 -17 -10 -4 -10 -6 0 -6 6 -1 12 -8 12 -16 0 -8 3 -15 8 -15 4 0 15
-18 25 -40 9 -22 21 -40 27 -40 5 0 7 -6 4 -14 -3 -8 4 -20 15 -28 12 -8 18
-17 15 -21 -6 -5 1 -15 33 -51 7 -8 9 -16 6 -20 -4 -3 -1 -6 5 -6 6 0 20 -20
31 -43 11 -24 27 -50 36 -57 8 -7 15 -19 15 -26 0 -8 3 -14 8 -14 4 0 18 -18
32 -40 14 -22 28 -40 32 -40 5 0 8 -7 8 -15 0 -8 5 -15 10 -15 6 0 10 -7 10
-16 0 -9 5 -12 11 -8 7 4 10 1 7 -7 -3 -8 6 -22 19 -32 13 -10 23 -23 23 -28
0 -9 21 -37 57 -74 12 -13 19 -26 16 -29 -3 -3 2 -8 11 -12 9 -3 16 -13 16
-21 0 -8 5 -11 10 -8 6 3 10 1 10 -4 0 -10 29 -47 67 -86 7 -7 9 -15 6 -19 -4
-3 1 -6 10 -6 8 0 18 -9 22 -19 3 -11 12 -22 20 -25 8 -3 15 -13 15 -21 0 -9
5 -13 10 -10 6 3 10 -1 10 -9 0 -8 9 -17 20 -21 11 -3 19 -9 17 -13 -1 -4 10
-20 26 -35 15 -15 27 -32 27 -37 0 -6 6 -10 14 -10 8 0 18 -9 21 -20 3 -11 13
-20 21 -20 8 0 14 -7 14 -16 0 -8 5 -12 10 -9 6 3 10 -1 10 -10 0 -9 4 -14 9
-10 5 3 12 -4 16 -15 4 -11 10 -18 15 -15 5 3 12 -4 15 -16 4 -11 9 -18 12
-15 3 3 18 -8 33 -24 16 -17 33 -30 40 -30 6 0 8 -4 5 -10 -3 -5 1 -10 9 -10
8 0 18 -9 21 -20 4 -11 10 -18 14 -16 4 3 14 -3 23 -12 30 -34 76 -70 82 -65
3 4 6 -1 6 -10 0 -16 12 -22 35 -17 6 1 7 -1 4 -5 -11 -10 34 -52 50 -46 11 3
13 -1 7 -14 -4 -11 -4 -16 0 -13 6 7 76 -39 82 -54 2 -5 8 -8 13 -8 6 0 15 -5
22 -10 19 -16 83 -64 107 -80 12 -8 28 -20 34 -26 6 -6 14 -11 18 -13 19 -5
68 -37 68 -43 0 -5 7 -8 15 -8 8 0 15 -5 15 -12 0 -6 3 -8 7 -5 3 4 17 -3 30
-15 13 -12 23 -18 23 -13 0 4 9 -2 19 -14 11 -12 22 -22 25 -22 20 3 26 0 21
-9 -3 -5 0 -7 8 -4 8 3 21 -1 28 -8 24 -22 76 -48 83 -41 3 3 6 -1 6 -11 0 -9
4 -15 9 -11 5 3 12 1 16 -5 3 -5 14 -10 24 -10 9 0 28 -10 41 -22 14 -13 27
-22 30 -21 10 5 40 -8 40 -18 0 -5 3 -8 8 -7 16 5 72 -22 72 -34 0 -9 3 -9 10
2 7 11 10 11 10 2 0 -7 5 -10 10 -7 6 3 10 1 10 -4 0 -6 8 -11 18 -11 9 0 26
-7 36 -15 10 -8 23 -12 27 -9 5 3 9 0 9 -6 0 -7 7 -10 15 -6 8 3 15 1 15 -4 0
-6 9 -10 20 -10 11 0 20 -6 20 -12 0 -9 4 -8 10 2 6 9 10 10 10 3 0 -6 14 -14
30 -18 18 -4 27 -11 24 -17 -4 -6 -3 -8 3 -5 11 7 83 -13 83 -23 0 -3 12 -6
28 -5 15 0 33 -5 40 -12 8 -7 17 -11 22 -8 5 3 11 1 15 -5 3 -5 19 -10 34 -10
15 0 31 -3 35 -7 3 -4 22 -12 41 -19 26 -8 35 -9 35 0 0 7 3 7 8 -1 5 -7 23
-15 41 -17 18 -2 36 -8 40 -12 3 -5 17 -10 31 -11 14 -1 39 -5 55 -8 17 -3 36
-7 43 -7 6 -1 12 -4 12 -8 0 -7 30 -11 97 -14 17 0 29 -5 25 -10 -3 -5 5 -7
16 -4 12 4 22 3 22 -2 0 -4 12 -6 27 -4 15 1 32 0 38 -4 11 -7 24 -10 74 -14
20 -1 39 -7 43 -13 5 -6 8 -5 8 3 0 8 5 10 12 6 7 -4 34 -9 60 -10 27 -1 56
-8 65 -15 9 -8 14 -9 10 -2 -5 8 2 10 25 8 18 -2 33 -4 33 -5 0 -8 62 -3 67 5
5 7 8 6 8 -1 0 -10 46 -15 140 -16 19 -1 41 -6 49 -12 11 -8 13 -8 8 0 -8 14
70 13 92 0 10 -7 12 -5 7 3 -10 15 25 11 36 -4 5 -7 8 -6 8 0 0 13 109 13 129
1 9 -6 12 -5 8 1 -3 5 23 10 66 12 40 1 95 3 122 4 28 1 56 6 63 10 6 5 12 5
12 0 0 -4 11 -8 25 -8 14 0 25 3 25 6 0 4 18 6 40 5 22 -1 40 1 40 6 0 4 12 3
26 -2 14 -6 23 -6 20 -1 -3 5 11 10 32 11 20 1 54 2 74 3 21 1 38 5 38 9 0 4
7 5 15 2 8 -4 23 -3 33 1 17 7 84 17 130 19 12 1 22 5 22 10 0 4 11 6 25 4 14
-3 25 -1 25 4 0 5 4 7 9 3 5 -3 12 -1 16 4 3 6 12 8 20 4 8 -3 15 -1 15 3 0 5
10 9 23 10 24 1 54 8 104 23 17 5 34 7 37 3 3 -3 6 -1 6 4 0 5 9 11 20 12 11
1 29 3 40 4 11 1 20 9 21 18 0 10 2 11 6 3 3 -9 10 -10 24 -3 10 6 19 8 19 4
0 -3 7 -1 15 6 8 7 15 10 15 6 0 -4 13 0 30 9 34 18 44 19 35 5 -3 -6 10 -1
29 11 20 12 43 18 52 15 8 -3 12 -2 9 4 -3 6 0 10 7 11 27 1 107 28 118 39 5
5 30 10 62 13 9 1 14 6 11 11 -4 5 1 7 11 3 10 -4 15 -3 11 3 -5 9 23 15 48
11 4 0 7 4 7 10 0 5 5 7 10 4 6 -3 10 -1 10 4 0 6 3 11 8 10 16 -2 52 14 52
23 0 6 9 8 19 5 12 -3 22 1 26 11 3 8 8 12 11 9 4 -3 23 3 42 14 20 10 42 19
49 19 7 0 13 5 13 10 0 6 9 10 20 10 11 0 20 5 20 11 0 5 4 8 9 4 6 -3 13 0
18 7 4 7 13 13 18 13 15 1 108 48 123 62 7 7 22 13 33 13 10 0 19 4 19 8 0 5
16 16 35 25 19 9 35 21 35 27 0 5 3 9 8 8 12 -3 52 13 52 21 0 5 14 14 30 21
17 7 30 17 30 22 0 5 5 6 10 3 6 -3 10 -1 10 5 0 6 13 16 30 21 16 6 27 15 24
20 -3 5 1 9 8 9 7 0 19 9 26 21 7 12 16 18 19 15 9 -8 64 24 58 34 -3 4 11 14
30 20 19 6 33 16 30 21 -4 5 -2 9 3 9 5 0 19 8 30 17 12 10 33 26 47 36 14 10
22 23 19 29 -4 7 -2 8 4 4 7 -4 12 -2 12 4 0 6 5 8 10 5 6 -3 10 1 10 9 0 10
6 13 15 10 9 -4 15 0 15 10 0 9 7 16 15 16 8 0 14 6 13 12 -2 7 2 12 9 11 7
-2 17 6 23 17 6 11 15 20 20 20 14 0 50 38 50 52 0 6 3 9 6 5 8 -8 44 25 38
35 -3 4 2 5 11 2 11 -5 18 0 21 13 3 11 17 26 30 33 13 8 22 16 19 18 -3 3 4
12 15 19 11 8 17 19 14 25 -4 6 -3 8 3 5 13 -8 56 37 46 47 -5 4 -3 6 3 4 5
-1 22 9 36 24 14 15 29 24 33 20 4 -4 5 3 2 16 -3 12 -1 20 3 17 5 -3 18 8 30
25 12 17 26 27 32 24 7 -4 8 -2 4 4 -4 7 -3 12 3 12 6 0 8 6 5 14 -3 8 0 17 7
22 8 4 10 3 5 -4 -4 -7 -2 -12 3 -12 6 0 11 6 11 14 0 8 7 17 16 20 8 3 13 10
10 14 -3 5 4 15 15 22 10 8 19 19 19 25 0 6 11 19 25 29 13 10 22 22 19 27 -3
5 3 9 13 9 14 0 15 2 4 9 -11 7 -9 10 8 16 13 4 20 9 18 12 -3 2 2 13 11 22
30 32 52 61 52 69 0 4 9 16 21 25 11 10 18 24 15 32 -3 10 0 12 11 8 11 -4 14
-2 9 5 -4 7 -3 12 3 12 6 0 17 15 26 34 9 18 24 42 34 52 10 11 16 25 13 32
-2 7 2 11 9 10 7 -2 14 3 15 10 1 6 2 17 3 23 0 5 6 7 11 4 6 -3 11 1 11 9 3
30 4 34 13 43 5 5 6 2 1 -6 -6 -10 -4 -12 4 -7 7 5 10 14 7 22 -3 8 -1 14 4
14 13 0 41 56 32 65 -4 5 -1 4 7 0 11 -6 13 -4 8 9 -4 10 -3 15 3 11 10 -6 35
34 25 43 -3 3 5 12 17 19 13 7 17 12 9 13 -9 0 -7 6 8 19 16 14 18 21 9 24 -8
4 -7 6 5 6 9 1 16 4 16 9 -3 20 2 32 13 26 6 -4 8 -3 4 4 -3 6 3 27 14 46 11
20 16 36 12 36 -4 0 -2 4 4 8 16 11 44 73 38 83 -3 5 0 8 8 7 7 -2 13 4 13 12
0 8 3 17 6 20 13 11 37 70 26 63 -7 -3 -4 3 6 14 9 11 17 25 17 31 0 7 5 12
11 12 8 0 7 5 -1 16 -8 8 -9 14 -4 12 5 -2 10 2 12 7 2 6 9 20 17 32 8 11 17
34 19 49 3 15 11 31 18 36 7 4 9 8 4 8 -5 0 -3 7 4 15 6 8 9 19 5 25 -3 5 0
13 9 16 8 3 12 12 9 20 -3 8 0 14 6 14 6 0 8 6 5 14 -3 8 0 17 5 21 6 3 9 11
6 16 -4 5 -1 9 6 9 8 0 9 3 0 13 -8 11 -6 18 9 32 11 10 17 21 15 25 -2 4 5
26 16 49 11 23 17 46 14 51 -3 6 -1 10 5 10 6 0 9 4 5 9 -3 5 -1 12 5 16 6 4
8 11 5 16 -4 5 -2 9 4 9 6 0 8 7 5 15 -4 9 0 15 7 15 11 0 11 3 -1 10 -11 7
-11 10 -2 10 7 0 10 4 7 10 -3 5 0 10 7 10 9 0 9 3 -2 10 -9 6 -11 10 -3 10 7
0 10 7 7 15 -4 8 -1 15 6 15 7 0 10 8 7 20 -3 13 -1 18 6 13 6 -4 8 0 4 10 -3
9 -2 19 3 22 5 3 7 12 3 20 -3 8 0 15 7 15 9 0 10 3 1 14 -8 10 -8 16 3 25 8
6 13 25 12 41 -1 16 2 27 6 24 8 -5 12 10 9 34 -1 6 4 12 11 12 9 0 9 3 -2 10
-9 6 -11 10 -3 10 7 0 10 6 7 14 -3 8 -1 17 5 21 8 4 8 12 0 27 -9 16 -8 19 2
13 9 -6 11 -3 6 8 -4 10 -2 17 5 17 6 0 5 6 -3 17 -8 10 -9 14 -2 10 6 -4 14
-3 18 3 3 5 1 10 -6 10 -10 0 -10 3 -2 11 6 6 9 18 6 25 -3 8 0 14 7 14 10 0
10 3 0 15 -7 9 -8 15 -2 15 6 0 9 8 7 18 -1 9 2 23 8 30 8 10 7 16 -2 22 -8 5
-9 10 -3 14 6 3 9 17 7 31 -1 14 1 25 6 25 5 0 6 6 3 14 -3 8 0 17 6 21 9 6 9
9 0 15 -9 5 -9 13 -2 27 8 14 8 23 1 30 -8 8 -7 13 2 18 8 6 10 4 4 -5 -5 -9
-4 -11 4 -6 6 4 9 12 5 17 -8 13 -11 79 -4 79 3 0 5 22 4 50 -2 27 2 52 7 56
6 4 6 11 -2 20 -6 8 -7 14 -2 14 5 0 10 7 10 15 0 8 -5 15 -11 15 -6 0 -4 5 4
10 12 8 12 10 1 10 -11 0 -11 3 -1 15 10 12 10 15 0 15 -10 0 -10 3 0 15 10
12 10 15 0 15 -9 0 -9 4 1 17 11 13 11 17 1 21 -10 3 -10 7 -1 18 9 11 8 14
-2 14 -12 0 -12 2 -1 9 17 11 17 21 0 32 -7 5 -8 9 -3 9 14 0 15 50 1 50 -7 0
-6 4 3 9 9 6 10 11 2 15 -8 5 -8 13 -1 27 8 14 7 19 -2 19 -8 0 -9 3 -3 8 14
10 17 32 5 32 -7 0 -7 6 0 20 8 15 8 20 -2 20 -10 0 -10 2 1 9 10 6 10 10 1
16 -9 6 -9 10 1 16 9 6 10 9 2 9 -12 0 -12 17 0 38 5 6 4 12 -2 12 -5 0 -8 15
-7 33 2 17 1 36 -2 42 -3 5 -5 27 -3 48 1 21 -3 45 -11 54 -9 12 -9 15 0 9 7
-4 12 -1 12 8 0 9 -5 16 -11 16 -8 0 -7 5 2 16 8 10 9 18 2 22 -12 8 -11 41 2
61 5 10 4 12 -3 7 -8 -4 -12 0 -12 11 0 11 -6 25 -12 32 -9 9 -9 12 -1 7 12
-7 13 40 0 60 -3 6 -4 23 -1 37 3 18 0 27 -8 27 -9 0 -8 3 2 10 9 6 10 10 3
10 -7 0 -10 10 -7 26 3 16 1 23 -6 19 -14 -9 -13 8 2 23 9 9 9 12 -1 12 -7 0
-10 4 -6 9 3 5 1 12 -3 15 -5 3 -8 17 -7 31 2 14 -2 25 -8 25 -7 0 -5 5 3 10
8 5 10 10 4 10 -6 0 -11 16 -12 35 -1 20 -5 41 -9 48 -8 13 -9 19 -11 60 -2
20 -6 26 -14 21 -9 -5 -9 -2 1 9 8 11 9 17 3 17 -6 0 -9 7 -6 15 4 9 0 15 -7
15 -11 0 -11 3 1 10 8 5 10 10 3 10 -6 0 -9 9 -6 20 3 11 1 20 -3 20 -5 0 -10
12 -11 26 0 15 -6 30 -13 34 -10 6 -9 9 0 12 10 3 10 7 -1 18 -8 8 -14 27 -13
43 1 15 -3 27 -8 27 -5 0 -8 8 -6 18 2 9 -3 23 -12 30 -13 11 -13 12 0 6 13
-7 13 -5 1 9 -7 9 -10 17 -6 17 4 0 1 8 -6 17 -9 11 -10 14 -2 9 9 -5 11 -2 7
8 -3 9 -10 16 -15 16 -4 0 -6 7 -3 15 4 8 2 15 -4 15 -6 0 -8 8 -5 19 2 10 -2
25 -10 32 -8 7 -12 21 -9 31 2 10 -1 18 -7 18 -7 0 -11 6 -9 13 1 6 -4 23 -11
36 -11 19 -11 22 1 15 10 -6 11 -5 1 8 -7 8 -10 18 -6 21 3 4 1 7 -6 7 -7 0
-9 5 -6 10 3 6 2 10 -4 10 -5 0 -8 9 -6 19 2 11 -3 22 -12 25 -13 5 -13 9 -2
23 8 9 9 14 3 10 -11 -6 -20 14 -30 62 -1 8 -8 17 -14 21 -9 6 -9 9 1 13 10 4
10 6 2 6 -7 1 -13 13 -13 27 0 16 -4 23 -12 18 -8 -5 -9 0 -6 14 4 12 2 22 -4
22 -5 0 -7 4 -4 9 4 5 1 11 -4 13 -6 2 -12 13 -13 26 0 12 -5 22 -10 22 -5 0
-7 7 -3 15 3 8 1 15 -5 15 -6 0 -7 5 -4 10 3 6 2 10 -4 10 -5 0 -8 9 -6 20 2
11 -2 20 -8 20 -7 0 -13 12 -14 26 0 15 -6 30 -13 34 -6 4 -12 19 -14 35 -2
15 -10 32 -19 37 -10 5 -17 14 -17 21 0 7 4 6 10 -3 5 -8 10 -10 10 -4 0 6 -7
17 -15 24 -8 7 -12 16 -9 21 3 5 0 9 -5 9 -6 0 -11 9 -11 20 0 11 -4 20 -10
20 -5 0 -9 3 -9 8 4 25 -2 42 -13 36 -7 -4 -10 -4 -6 0 8 9 -11 68 -20 62 -4
-2 -8 7 -9 22 0 14 -8 29 -17 34 -8 5 -13 15 -10 23 4 8 0 17 -9 20 -8 4 -13
16 -11 31 1 13 -3 24 -10 24 -6 0 -18 20 -25 45 -7 25 -17 45 -23 45 -5 0 -6
5 -3 10 3 6 -1 13 -10 16 -13 6 -14 8 -3 15 10 7 10 9 1 9 -7 0 -13 9 -13 20
0 11 -7 20 -15 20 -8 0 -12 6 -9 13 6 17 -20 69 -30 60 -4 -4 -4 0 0 10 4 10
1 17 -6 17 -7 0 -10 7 -6 15 3 8 2 15 -3 15 -5 0 -12 11 -15 25 -4 16 -11 23
-18 19 -6 -4 -8 -3 -5 3 4 6 0 23 -8 39 -7 15 -12 31 -9 36 3 4 -2 8 -10 8
-10 0 -13 6 -10 15 4 8 1 15 -5 15 -6 0 -10 3 -10 8 4 21 -2 32 -13 26 -8 -5
-7 0 2 11 8 10 10 16 3 12 -7 -5 -16 5 -24 28 -7 19 -16 35 -20 35 -3 0 -9 14
-13 31 -3 17 -15 42 -26 56 -11 14 -17 29 -14 34 3 5 0 9 -6 9 -6 0 -9 4 -6 9
3 5 -1 14 -9 21 -8 7 -15 18 -15 25 0 12 -39 94 -50 105 -6 6 -12 30 -13 47 0
7 -4 10 -9 7 -7 -5 -12 10 -9 29 0 4 -4 7 -11 7 -6 0 -9 3 -5 6 7 8 -13 64
-24 64 -4 0 -6 6 -3 13 3 8 -2 20 -10 27 -9 7 -13 16 -10 21 3 5 1 9 -3 9 -5
0 -9 9 -10 20 -1 11 -9 27 -17 36 -19 18 -21 28 -4 18 6 -4 4 3 -5 17 -9 13
-17 31 -17 41 0 9 -8 22 -17 27 -13 8 -14 10 -4 11 11 0 10 4 -5 16 -10 8 -14
13 -7 10 8 -5 8 0 0 19 -7 14 -15 25 -19 25 -4 0 -5 6 -2 14 3 8 0 17 -5 21
-6 3 -9 11 -6 16 4 5 1 9 -5 9 -6 0 -9 4 -6 8 3 5 -1 20 -9 35 -8 15 -11 27
-8 27 3 0 0 7 -7 15 -7 8 -9 15 -4 15 5 0 2 5 -7 10 -10 6 -15 20 -14 35 2 14
-1 25 -6 25 -5 0 -9 11 -9 25 0 14 -4 25 -8 25 -4 0 -8 10 -9 22 -1 11 -8 25
-15 29 -11 7 -11 9 0 9 10 0 10 4 -2 15 -8 9 -13 22 -10 29 3 8 1 17 -5 21 -6
3 -11 15 -11 26 0 10 -4 19 -9 19 -6 0 -8 9 -6 20 2 11 -1 20 -6 20 -6 0 -7 5
-3 11 3 6 0 15 -7 20 -12 7 -11 9 1 9 12 0 12 2 2 9 -7 4 -14 18 -15 29 -1 12
-4 22 -7 22 -5 0 -9 18 -12 58 -1 6 -5 12 -10 12 -5 0 -7 4 -3 9 3 5 1 12 -4
16 -6 3 -8 12 -5 19 3 8 0 17 -5 21 -6 3 -9 11 -6 16 4 5 2 9 -4 9 -6 0 -8 7
-5 15 4 8 1 21 -5 29 -6 7 -8 16 -4 19 3 4 1 7 -5 7 -6 0 -9 7 -5 17 4 9 2 14
-3 10 -5 -3 -9 11 -9 33 0 21 -3 36 -7 34 -9 -6 -21 33 -13 46 3 5 1 10 -4 10
-6 0 -10 3 -9 8 1 4 -4 25 -10 46 -6 22 -9 43 -7 47 3 4 0 9 -5 11 -6 2 -12
13 -13 26 0 12 -4 22 -7 22 -3 0 -6 14 -7 32 -1 17 -8 35 -15 40 -7 4 -10 8
-6 8 4 0 2 15 -4 33 -10 32 -18 70 -20 95 -1 6 -5 12 -10 12 -4 0 -8 9 -8 19
0 11 -5 23 -10 26 -7 4 -7 13 0 26 8 15 8 19 -2 17 -7 -2 -12 3 -10 11 2 7 -5
23 -15 35 -17 19 -17 20 0 7 15 -12 17 -12 11 3 -3 9 -10 16 -15 16 -5 0 -8 3
-8 8 1 4 1 9 -1 12 -1 3 -3 18 -5 35 -2 16 -9 31 -14 33 -5 2 -8 9 -5 16 3 8
-2 21 -11 30 -12 12 -13 16 -3 16 8 0 9 3 3 8 -10 7 -17 27 -18 50 0 6 -4 12
-9 12 -4 0 -8 9 -8 21 0 12 -4 18 -11 13 -8 -5 -9 -2 -1 11 7 14 6 22 -4 33
-8 7 -12 18 -9 23 4 5 1 9 -4 9 -6 0 -11 9 -11 20 0 11 -5 20 -11 20 -5 0 -7
5 -4 10 4 6 1 17 -5 25 -7 8 -9 15 -6 15 4 0 -3 14 -15 32 -13 17 -18 28 -11
24 9 -6 10 -2 0 18 -6 14 -15 26 -19 26 -5 0 -5 7 -2 17 4 11 3 14 -5 9 -8 -5
-10 -2 -6 8 3 9 1 16 -5 16 -6 0 -8 7 -5 15 4 8 1 15 -6 15 -6 0 -8 5 -5 10 3
6 1 10 -4 10 -6 0 -11 9 -11 20 0 11 -4 20 -10 20 -5 0 -10 9 -10 20 0 11 -4
20 -9 20 -8 0 -24 37 -22 53 1 4 -4 7 -10 7 -6 0 -8 7 -5 16 3 8 2 12 -4 9 -6
-3 -10 -1 -10 4 0 19 -3 25 -22 45 -10 11 -18 24 -18 28 0 5 -9 18 -20 30 -11
12 -20 30 -20 40 0 11 -4 17 -9 14 -5 -3 -11 3 -14 14 -8 31 -9 33 -40 63 -15
15 -26 31 -23 35 3 5 -4 15 -15 22 -10 8 -19 19 -19 25 0 6 -9 17 -20 25 -11
8 -20 20 -20 27 0 7 -4 13 -10 13 -5 0 -10 5 -10 11 0 6 -15 26 -32 44 -47 48
-58 62 -51 69 4 3 0 6 -7 6 -15 0 -60 46 -52 54 3 3 0 6 -7 6 -16 0 -42 26
-34 34 4 3 -2 6 -12 6 -10 0 -16 3 -13 6 6 5 -38 54 -47 54 -12 0 -54 44 -49
52 3 4 -1 8 -10 8 -8 0 -24 12 -36 28 -12 15 -18 21 -14 13 5 -9 3 -12 -4 -7
-7 4 -12 14 -12 23 0 9 -3 13 -6 10 -4 -3 -19 7 -34 23 -16 17 -32 30 -38 30
-5 0 -13 7 -16 16 -4 9 -9 14 -12 11 -7 -7 -50 35 -46 46 1 5 -1 6 -6 3 -5 -3
-23 8 -40 25 -17 17 -36 28 -42 24 -5 -3 -10 1 -10 9 0 8 -5 18 -12 22 -7 5
-9 2 -4 -7 4 -8 0 -5 -8 5 -9 11 -16 16 -16 11 0 -4 -8 2 -19 13 -10 12 -23
22 -28 22 -6 0 -29 14 -51 30 -23 17 -46 30 -52 30 -5 0 -10 5 -10 10 0 6 -9
10 -21 10 -11 0 -17 5 -14 10 3 6 -3 10 -14 10 -12 0 -21 4 -21 9 0 8 -37 24
-52 22 -5 -1 -8 4 -8 10 0 5 -4 7 -10 4 -5 -3 -10 -2 -10 4 0 9 -68 37 -82 33
-5 -1 -8 2 -8 6 0 9 -64 37 -76 33 -4 -2 -10 2 -14 9 -4 6 -20 13 -36 16 -16
3 -44 12 -62 21 -18 9 -41 17 -50 18 -43 5 -82 18 -82 28 0 6 -3 7 -7 4 -3 -4
-13 -1 -21 6 -13 10 -14 9 -7 -3 6 -12 5 -12 -5 -3 -7 6 -19 9 -26 6 -8 -3
-14 -1 -14 5 0 5 -11 8 -25 7 -14 -2 -25 0 -25 3 0 4 -12 8 -27 9 -48 3 -68 8
-75 18 -5 6 -11 5 -17 -4 -5 -8 -11 -9 -15 -3 -3 5 -17 10 -31 11 -49 3 -55 4
-55 15 0 6 -5 4 -10 -4 -7 -11 -10 -11 -10 -2 0 7 -5 10 -10 7 -6 -4 -18 -1
-27 7 -12 9 -15 9 -9 1 4 -7 3 -13 -3 -13 -5 0 -12 4 -15 9 -3 4 -26 8 -51 7
-25 -1 -45 2 -45 5 0 4 -9 5 -20 2 -11 -3 -28 1 -37 8 -10 8 -14 9 -10 2z
m-67 -1663 c16 7 24 6 24 -1 0 -8 5 -7 15 1 8 7 15 8 15 3 0 -11 29 -11 48 1
6 4 12 3 12 -3 0 -5 9 -8 20 -6 11 2 20 -1 20 -6 0 -6 4 -8 9 -4 5 3 13 0 16
-6 4 -5 13 -8 21 -5 8 3 14 -1 14 -10 0 -8 5 -12 10 -9 6 3 10 2 10 -3 0 -6
11 -13 25 -16 14 -4 25 -11 25 -16 0 -6 5 -10 12 -10 14 0 69 -60 63 -70 -2
-3 5 -13 16 -20 10 -8 19 -20 19 -27 0 -7 5 -13 12 -13 6 0 8 -3 5 -7 -4 -3
-2 -13 5 -20 11 -13 16 -32 20 -73 0 -8 6 -18 12 -22 8 -6 8 -8 -1 -8 -13 0
-12 -18 1 -39 6 -10 5 -12 -2 -7 -7 4 -12 3 -12 -3 0 -5 5 -13 10 -16 8 -5 8
-11 0 -20 -8 -10 -8 -15 0 -20 8 -5 8 -10 0 -20 -8 -10 -8 -15 1 -21 9 -5 7
-11 -6 -21 -11 -7 -13 -13 -6 -13 7 0 9 -5 6 -10 -4 -6 -12 -7 -18 -3 -8 4 -7
1 1 -9 11 -14 10 -18 -5 -27 -13 -7 -14 -10 -4 -11 11 0 10 -4 -4 -13 -10 -8
-15 -19 -11 -25 4 -7 2 -12 -4 -12 -6 0 -16 -13 -21 -30 -6 -16 -15 -27 -20
-24 -5 3 -9 1 -9 -4 0 -5 -11 -21 -25 -36 -14 -15 -25 -24 -25 -21 0 3 -6 0
-14 -7 -8 -7 -11 -17 -8 -22 3 -5 -2 -7 -11 -3 -8 3 -25 -3 -38 -14 -12 -10
-33 -19 -46 -19 -12 0 -23 -5 -23 -11 0 -5 5 -7 12 -3 7 4 8 3 4 -4 -5 -9 -13
-9 -27 -2 -13 8 -19 7 -19 0 0 -6 -4 -8 -10 -5 -5 3 -10 1 -10 -4 0 -6 -3 -10
-7 -10 -5 1 -10 0 -13 -1 -15 -5 -90 -6 -90 -1 0 4 -10 8 -22 8 -44 3 -63 8
-70 20 -5 6 -18 9 -30 5 -12 -3 -19 -1 -15 4 3 6 -9 16 -26 24 -18 7 -39 22
-48 32 -9 10 -21 18 -27 18 -5 0 -13 7 -16 16 -3 9 -11 12 -18 8 -7 -4 -10 -4
-6 0 4 5 -2 17 -12 29 -11 11 -16 25 -13 31 3 6 3 8 -2 4 -10 -10 -34 21 -35
45 0 9 -4 17 -8 17 -13 0 -41 70 -28 70 6 0 2 7 -8 15 -11 8 -15 15 -10 15 6
0 11 7 11 15 0 8 -3 15 -7 15 -9 0 -7 57 2 66 4 4 3 13 -3 21 -6 7 -7 13 -2
13 5 0 9 9 10 20 1 13 -2 18 -10 13 -6 -3 -1 7 11 24 12 17 19 33 15 37 -3 3
-1 6 6 6 8 0 11 7 7 15 -3 8 -1 15 5 15 6 0 7 5 4 10 -3 6 0 13 9 16 8 3 17
12 20 20 4 10 1 13 -7 9 -6 -4 -4 0 5 8 10 8 14 18 10 22 -4 5 -1 5 6 1 9 -5
15 -1 19 12 2 11 16 25 29 31 14 6 27 18 30 26 4 8 13 15 20 15 8 0 17 7 20
15 4 8 9 13 13 11 3 -2 23 4 44 14 21 11 45 16 53 13 8 -3 14 0 14 6 0 6 7 8
15 5 9 -4 15 0 16 7 0 10 2 10 5 2 4 -8 13 -9 30 -3z m-56 -3355 c0 -5 5 -3
10 5 8 12 11 13 19 1 6 -10 10 -10 16 -1 6 9 10 9 16 -1 5 -8 9 -9 9 -3 0 13
48 7 67 -8 7 -5 14 -5 17 1 7 11 67 8 87 -4 8 -6 10 -4 4 5 -6 9 -4 11 5 5 12
-8 45 -13 108 -16 17 -1 32 -5 32 -9 0 -3 19 -7 43 -8 47 -2 67 -5 82 -13 6
-3 20 -4 33 -3 12 0 22 -4 22 -10 0 -6 5 -4 10 4 5 8 10 10 10 5 0 -6 8 -12
18 -13 15 -1 63 -9 70 -11 1 -1 5 -1 10 -2 4 0 13 -6 21 -12 12 -10 13 -9 6 3
-8 13 -7 13 8 1 9 -7 17 -10 17 -6 0 5 10 0 22 -11 12 -10 18 -13 14 -6 -4 6
-2 12 3 12 6 0 11 -4 11 -8 0 -5 7 -9 15 -10 8 -1 22 -3 30 -4 8 -1 15 -5 15
-10 0 -4 3 -7 8 -7 22 4 42 -2 37 -11 -4 -6 5 -10 20 -10 14 0 28 -6 31 -14 3
-8 13 -13 22 -12 9 2 23 -3 30 -11 8 -7 18 -11 23 -8 5 4 9 1 9 -4 0 -6 9 -11
20 -11 11 0 20 -5 20 -11 0 -5 5 -7 10 -4 6 3 10 1 10 -5 0 -6 5 -8 10 -5 6 3
10 1 10 -4 0 -6 9 -11 20 -11 11 0 20 -5 20 -11 0 -5 4 -8 9 -4 5 3 12 1 16
-5 4 -6 10 -8 15 -5 4 3 11 -2 14 -11 4 -9 9 -14 12 -11 4 3 13 -1 21 -9 8 -8
19 -12 24 -9 5 4 9 1 9 -6 0 -7 3 -10 6 -6 3 3 11 2 18 -4 25 -21 86 -58 86
-52 0 3 8 -1 18 -10 10 -10 22 -14 25 -10 4 3 7 -1 7 -10 0 -10 7 -17 15 -17
8 0 15 -4 15 -9 0 -5 12 -13 28 -19 15 -5 37 -19 48 -30 12 -12 25 -18 28 -15
3 4 6 2 6 -4 0 -6 9 -13 21 -16 12 -3 18 -10 15 -15 -3 -6 5 -13 19 -16 14 -4
25 -13 25 -22 0 -8 4 -13 8 -10 5 3 18 -5 28 -17 11 -12 34 -33 51 -47 17 -13
29 -28 27 -32 -3 -4 1 -8 8 -8 17 -1 58 -35 58 -49 0 -6 5 -11 10 -11 11 0 50
-36 50 -46 0 -11 28 -33 34 -27 3 4 6 -1 6 -10 0 -9 7 -17 17 -17 9 0 14 -3
10 -6 -3 -3 9 -21 26 -38 55 -56 87 -95 87 -107 0 -5 5 -7 10 -4 6 3 10 -1 10
-10 0 -9 5 -13 10 -10 6 3 10 1 10 -5 0 -11 39 -71 53 -81 5 -3 9 -10 10 -15
1 -5 5 -8 10 -6 4 1 6 -1 5 -5 -4 -12 35 -73 45 -73 5 0 7 -7 4 -14 -4 -9 2
-17 14 -21 10 -4 19 -13 19 -21 0 -9 7 -22 15 -31 8 -8 13 -19 10 -24 -4 -5
-2 -9 3 -9 5 0 15 -13 22 -30 7 -17 17 -27 24 -23 6 3 8 3 4 -2 -4 -4 -2 -17
4 -29 7 -11 11 -24 10 -28 -1 -5 3 -8 9 -8 6 0 8 -7 5 -16 -3 -8 -2 -13 2 -10
5 3 14 -11 21 -30 7 -18 16 -34 21 -34 5 0 7 -6 4 -14 -3 -7 2 -20 10 -29 8
-8 12 -17 9 -21 -4 -3 -1 -6 5 -6 6 0 9 -7 6 -15 -4 -8 -1 -15 6 -15 6 0 9 -4
5 -9 -3 -5 -1 -12 5 -16 6 -4 8 -11 5 -16 -4 -5 -1 -9 5 -9 6 0 9 -4 6 -9 -3
-5 1 -14 9 -21 8 -7 15 -21 15 -32 0 -11 10 -34 22 -51 12 -17 16 -27 7 -22
-9 5 -8 1 4 -12 9 -11 14 -23 10 -26 -3 -4 -1 -7 6 -7 7 0 9 -4 6 -10 -3 -5
-2 -10 4 -10 5 0 8 -9 6 -20 -2 -11 1 -20 7 -20 6 0 9 -3 5 -6 -3 -4 0 -19 8
-34 8 -15 11 -30 8 -34 -4 -3 -1 -6 5 -6 6 0 9 -7 6 -15 -4 -8 -1 -15 5 -15 9
0 9 -5 0 -21 -8 -15 -8 -19 0 -15 10 6 16 -20 12 -46 0 -5 4 -8 9 -8 6 0 10
-13 10 -30 0 -16 3 -30 8 -30 4 0 8 -12 9 -27 6 -85 9 -101 14 -97 3 2 6 -13
7 -33 1 -19 7 -42 13 -49 6 -8 7 -14 2 -14 -5 0 -10 -7 -10 -15 0 -8 5 -15 10
-15 5 0 4 -7 -3 -15 -7 -8 -8 -15 -3 -15 5 0 9 -23 9 -51 -1 -28 2 -53 7 -56
4 -3 3 -11 -4 -19 -6 -8 -7 -14 -3 -14 5 0 9 -76 10 -170 0 -112 -4 -170 -10
-170 -6 0 -4 -5 4 -10 8 -5 10 -10 5 -10 -12 0 -12 -40 0 -60 6 -9 4 -11 -5
-5 -10 6 -12 4 -7 -8 3 -9 2 -19 -3 -22 -7 -4 -7 -13 0 -24 5 -10 7 -21 3 -24
-5 -6 -12 -48 -15 -92 -1 -11 -6 -26 -11 -32 -6 -9 -5 -13 4 -13 11 0 11 -2 2
-8 -7 -4 -13 -23 -14 -42 -2 -19 -5 -39 -8 -45 -3 -5 -6 -26 -8 -45 -2 -19 -6
-42 -9 -50 -9 -18 -13 -38 -16 -67 -1 -13 -5 -23 -8 -23 -3 0 -6 -8 -7 -18 -2
-28 -8 -47 -15 -52 -4 -4 -9 -22 -10 -42 -2 -20 -5 -34 -7 -32 -7 7 -41 -88
-35 -97 2 -4 0 -10 -6 -14 -6 -4 -7 -11 -4 -17 4 -7 2 -8 -4 -4 -8 5 -12 0
-12 -13 0 -12 -5 -21 -11 -21 -5 0 -8 -4 -4 -9 7 -12 -25 -81 -37 -81 -5 0 -7
-4 -3 -9 3 -5 1 -12 -5 -16 -6 -4 -8 -11 -5 -16 4 -5 1 -9 -5 -9 -6 0 -8 -5
-4 -11 3 -6 2 -14 -3 -18 -17 -10 -53 -93 -46 -104 3 -6 1 -7 -4 -4 -10 7 -28
-20 -25 -35 1 -5 -3 -8 -8 -8 -6 0 -10 -7 -10 -15 0 -8 -3 -15 -8 -15 -8 0
-38 -61 -34 -72 1 -5 -4 -8 -12 -8 -8 0 -18 -5 -22 -12 -5 -7 -2 -9 7 -4 8 4
6 1 -4 -7 -10 -9 -18 -19 -18 -24 1 -4 -5 -15 -13 -25 -8 -9 -12 -19 -9 -22 4
-3 1 -6 -5 -6 -7 0 -12 -7 -12 -16 0 -8 -4 -13 -9 -9 -5 3 -12 -4 -16 -15 -3
-11 -11 -20 -16 -20 -5 0 -9 -5 -9 -12 0 -12 -7 -21 -61 -75 -18 -18 -29 -33
-25 -33 4 0 1 -7 -8 -15 -8 -8 -20 -15 -27 -15 -7 0 -10 -3 -7 -6 3 -3 -32
-43 -78 -90 -46 -46 -84 -88 -84 -94 0 -5 -7 -7 -15 -4 -9 4 -15 0 -15 -10 0
-9 -7 -16 -16 -16 -8 0 -12 -4 -9 -10 3 -5 2 -10 -4 -10 -12 0 -87 -72 -84
-81 1 -4 -7 -4 -19 -1 -13 3 -19 1 -15 -5 4 -6 -13 -23 -38 -38 -24 -16 -42
-32 -39 -37 3 -4 -4 -8 -15 -8 -11 0 -27 -10 -35 -22 -9 -12 -16 -18 -16 -13
0 5 -7 0 -16 -11 -8 -10 -13 -12 -9 -4 4 8 -1 6 -9 -4 -9 -11 -16 -16 -16 -10
-1 5 -10 -2 -20 -15 -11 -13 -20 -20 -20 -16 0 3 -7 -1 -16 -9 -8 -9 -20 -14
-25 -10 -5 3 -12 -2 -15 -10 -3 -9 -12 -16 -20 -16 -7 0 -17 -7 -22 -16 -5 -9
-13 -16 -18 -16 -17 0 -84 -33 -84 -40 0 -5 -6 -8 -14 -8 -8 0 -21 -6 -28 -13
-7 -6 -17 -12 -23 -13 -24 -3 -55 -17 -55 -26 0 -5 -4 -7 -9 -4 -12 8 -83 -29
-74 -38 4 -5 -3 -3 -16 4 -15 8 -21 8 -17 1 4 -6 0 -11 -9 -11 -9 0 -14 -4
-11 -9 3 -4 -6 -7 -19 -5 -14 1 -25 -2 -25 -7 0 -5 -3 -8 -7 -8 -19 3 -34 -2
-29 -10 3 -4 -6 -7 -19 -5 -14 1 -27 -2 -31 -7 -3 -5 -10 -7 -15 -4 -5 4 -9 2
-9 -3 0 -5 -15 -13 -32 -17 -18 -4 -40 -9 -48 -12 -8 -2 -21 -5 -27 -5 -7 -1
-13 -5 -13 -10 0 -5 -4 -6 -10 -3 -5 3 -10 2 -10 -2 0 -5 -12 -10 -27 -11 -15
-1 -29 -5 -32 -10 -8 -9 -29 -15 -63 -15 -16 0 -28 -4 -28 -9 0 -4 -18 -8 -41
-8 -29 0 -38 -3 -33 -13 5 -8 2 -8 -9 2 -9 7 -17 9 -17 4 0 -5 -13 -10 -30
-10 -16 0 -30 5 -30 11 0 8 -2 8 -8 0 -12 -18 -39 -23 -52 -11 -10 9 -11 9 -5
-2 6 -11 3 -13 -13 -9 -12 4 -24 3 -26 0 -2 -4 -41 -7 -85 -7 -45 0 -81 -4
-81 -8 0 -4 -7 -4 -15 1 -9 4 -40 5 -70 2 -32 -4 -59 -2 -65 4 -7 7 -10 6 -10
-2 0 -8 -7 -9 -25 -2 -15 6 -25 6 -25 0 0 -5 -12 -5 -30 0 -21 6 -30 5 -31 -3
0 -8 -2 -8 -6 1 -4 10 -8 10 -19 1 -8 -6 -14 -8 -14 -3 0 5 -27 9 -60 9 -33
-1 -60 2 -60 5 0 3 -19 7 -42 8 -93 5 -125 9 -138 17 -9 6 -11 4 -5 -6 7 -11
6 -12 -6 -3 -8 6 -30 12 -49 13 -56 3 -60 4 -60 11 0 4 -6 7 -12 7 -47 3 -68
9 -68 18 0 5 -5 3 -10 -5 -5 -8 -10 -10 -10 -5 0 10 -17 15 -62 18 -10 1 -18
5 -18 10 0 4 -4 5 -10 2 -5 -3 -10 -2 -10 3 0 5 -10 9 -22 8 -13 -1 -32 3 -43
9 -11 7 -30 11 -42 10 -12 -1 -24 4 -27 11 -3 8 -12 11 -21 8 -8 -3 -15 -1
-15 6 0 6 -4 9 -8 6 -5 -3 -20 1 -34 8 -18 10 -31 10 -44 3 -10 -5 -16 -6 -12
-2 13 13 -25 35 -39 23 -9 -7 -13 -7 -13 1 0 7 -4 9 -10 6 -5 -3 -10 -1 -10 5
0 6 -4 8 -10 5 -5 -3 -10 -1 -10 4 0 6 -9 11 -20 11 -11 0 -20 5 -20 11 0 5
-4 8 -9 5 -5 -3 -25 6 -46 19 -20 14 -41 23 -46 19 -6 -3 -16 1 -22 10 -7 9
-22 18 -34 19 -13 0 -25 7 -27 14 -3 7 -12 10 -22 6 -12 -4 -15 -3 -10 5 5 8
0 12 -13 12 -12 0 -21 5 -21 10 0 6 -7 10 -15 10 -8 0 -15 5 -15 10 0 6 -7 10
-15 10 -8 0 -15 6 -15 13 0 9 -2 9 -9 -1 -6 -10 -10 -9 -14 7 -3 12 -12 21
-20 21 -8 0 -18 7 -21 16 -3 8 -10 12 -16 9 -5 -3 -10 1 -10 9 0 9 -3 15 -7
15 -5 -1 -15 -1 -23 0 -12 1 -12 3 -2 10 10 6 6 10 -15 16 -15 5 -31 8 -35 7
-4 -1 -5 4 -2 12 3 7 -3 17 -13 20 -10 4 -20 8 -23 9 -2 1 -19 17 -37 35 -18
18 -33 30 -33 26 0 -4 -8 3 -19 14 -10 12 -21 19 -25 15 -3 -3 -6 1 -6 11 0 9
-4 14 -10 11 -5 -3 -10 1 -10 10 0 9 -4 14 -9 11 -5 -3 -11 1 -15 9 -3 8 -12
15 -21 15 -8 0 -15 4 -15 9 0 5 -13 23 -30 39 -16 17 -30 33 -30 37 0 12 -27
34 -34 28 -3 -4 -6 1 -6 10 0 10 -5 17 -11 17 -5 0 -7 5 -4 10 3 6 -1 10 -10
10 -9 0 -13 5 -10 10 3 6 -1 10 -9 10 -9 0 -16 7 -16 16 0 8 -4 12 -10 9 -5
-3 -10 1 -10 9 0 9 -4 16 -10 16 -5 0 -10 6 -10 13 0 8 -11 20 -25 27 -14 7
-23 16 -20 18 2 3 -4 12 -14 21 -10 9 -23 26 -30 39 -7 12 -16 20 -22 17 -5
-4 -8 -3 -7 2 5 18 -15 53 -30 53 -15 0 -15 2 -2 10 13 9 7 14 -12 11 -4 0 -5
6 -2 14 4 8 -1 17 -10 21 -9 3 -13 10 -10 15 3 5 0 9 -7 9 -7 0 -10 3 -6 6 3
3 -3 15 -13 27 -11 11 -16 25 -13 30 4 6 0 8 -11 4 -9 -4 -15 -3 -11 2 3 5 1
11 -4 13 -5 1 -11 10 -13 18 -2 8 -7 20 -13 26 -34 39 -45 55 -45 64 0 6 -5
10 -11 10 -5 0 -7 5 -4 10 3 6 2 10 -4 10 -6 0 -15 18 -21 40 -6 22 -15 38
-20 35 -6 -3 -7 1 -4 9 4 9 1 16 -6 16 -7 0 -10 7 -6 16 4 10 2 13 -6 8 -7 -5
-9 0 -6 14 4 12 2 20 -3 16 -5 -3 -9 2 -9 11 0 9 -4 14 -9 11 -4 -3 -6 6 -3
19 2 15 0 25 -7 25 -7 0 -9 5 -6 10 3 6 1 10 -5 10 -6 0 -9 4 -6 9 3 5 -1 12
-10 15 -8 3 -13 10 -9 16 3 5 -1 22 -9 38 -8 16 -12 32 -9 36 4 3 1 6 -6 6 -7
0 -10 4 -6 10 3 5 1 17 -4 27 -19 36 -40 101 -34 107 4 3 2 6 -4 6 -5 0 -10 6
-10 13 -1 16 -10 54 -22 95 -5 17 -7 32 -3 32 3 0 1 5 -6 12 -8 8 -9 15 -1 25
8 9 8 13 0 13 -6 0 -11 13 -11 29 0 17 -5 33 -10 36 -7 4 -6 13 1 27 8 15 8
19 0 14 -7 -5 -11 5 -11 28 0 19 -4 38 -10 41 -5 3 -10 12 -10 18 0 7 4 6 11
-3 9 -12 9 -11 3 5 -4 11 -7 35 -8 52 -1 18 -4 33 -7 33 -3 0 -5 14 -4 30 1
17 -1 30 -5 30 -4 0 -7 7 -7 15 0 8 5 15 11 15 6 0 6 4 -2 8 -7 5 -11 19 -9
33 3 13 1 34 -4 47 -6 14 -5 22 2 22 8 0 7 5 -1 15 -10 12 -10 15 1 15 9 0 10
3 4 8 -5 4 -10 32 -9 62 0 30 -4 61 -10 69 -8 11 -8 13 0 8 8 -5 11 15 11 68
-1 48 -5 72 -12 67 -5 -3 -4 2 4 11 7 10 11 30 9 47 -3 17 0 33 5 37 5 3 3 9
-4 14 -11 7 -11 9 -1 9 7 0 10 4 7 10 -3 5 -1 18 5 29 7 14 7 22 0 26 -7 5 -8
11 -1 19 5 6 8 24 7 39 -2 15 0 27 4 27 5 0 7 11 5 25 -1 14 2 28 7 31 5 3 7
12 4 20 -3 8 -1 14 4 14 5 0 7 7 4 15 -4 8 -1 22 6 30 6 8 9 19 5 25 -3 5 -2
10 3 10 5 0 8 14 7 30 -1 17 3 30 8 30 6 0 8 3 4 6 -3 3 3 30 13 59 10 29 16
56 13 59 -4 3 -1 6 6 6 8 0 11 7 7 15 -3 8 -1 15 5 15 6 0 8 4 4 9 -3 5 0 13
6 16 5 4 8 13 5 21 -3 8 -2 14 3 14 4 0 8 6 8 13 2 20 27 81 38 89 6 4 7 8 2
8 -4 0 1 17 12 39 11 21 17 41 14 45 -4 3 -1 6 6 6 7 0 9 5 6 10 -3 6 -1 10 4
10 6 0 11 9 11 19 0 11 4 22 9 26 5 3 12 19 16 35 4 17 11 30 17 30 6 0 8 7 4
15 -3 8 0 14 7 12 7 -1 11 8 11 21 -1 13 4 22 13 22 8 0 12 4 8 10 -3 5 3 18
14 29 11 11 15 21 10 23 -5 2 2 15 16 31 14 15 23 27 20 27 -4 0 3 14 15 30
12 17 18 30 13 30 -4 0 -3 4 2 8 11 8 85 119 85 127 0 3 9 15 20 27 11 12 20
28 20 35 0 7 5 13 11 13 5 0 8 4 5 9 -3 5 1 12 10 15 8 3 13 10 10 14 -3 5 3
16 12 25 25 23 44 47 37 47 -3 0 0 6 7 14 7 8 16 12 20 9 4 -2 5 4 1 13 -4 12
-3 15 5 10 7 -4 12 -1 12 7 0 8 7 18 16 21 8 3 13 10 10 14 -3 5 6 14 20 21
14 6 22 16 19 21 -3 6 -2 10 4 10 13 0 67 50 55 50 -5 0 -1 5 9 11 9 6 15 15
11 20 -3 5 0 8 8 7 7 -2 12 3 10 10 -1 6 3 12 8 12 6 0 37 27 70 60 33 33 60
57 60 54 0 -4 9 3 20 16 11 13 20 19 20 14 0 -5 5 -1 11 9 5 9 16 17 22 17 7
0 19 9 27 19 7 11 17 18 22 15 4 -3 8 2 8 10 0 9 5 16 10 16 13 0 56 43 53 52
-2 5 0 7 5 6 8 -3 55 21 62 32 3 4 42 27 88 50 45 23 82 46 82 50 0 5 10 6 22
2 13 -3 19 -1 15 5 -4 6 3 14 16 18 12 4 27 9 32 11 36 12 143 72 138 77 -3 4
4 5 16 2 11 -2 27 2 35 10 7 8 16 11 20 8 3 -3 16 2 28 13 12 10 18 13 13 5
-6 -10 -4 -12 6 -5 8 4 21 9 29 11 8 1 16 6 18 12 2 5 10 7 18 4 8 -3 14 0 14
7 0 6 4 9 9 6 12 -8 42 4 36 14 -3 4 1 8 8 7 39 -1 58 4 51 15 -4 7 -3 8 5 4
7 -4 20 -4 29 0 9 4 25 8 35 9 9 2 19 4 22 5 3 1 10 4 15 5 6 1 11 3 13 5 5 4
43 10 74 13 18 1 33 4 33 7 0 3 12 6 28 6 69 3 101 8 97 14 -2 3 16 6 41 5 24
0 44 2 44 5 0 3 20 5 45 4 25 -1 45 2 45 7 0 5 11 4 25 -1 14 -5 27 -5 30 -1
3 5 16 8 30 6 14 -1 25 1 25 4 0 3 47 6 105 6 63 0 105 -4 105 -10z m-2129
-4562 c13 -16 12 -17 -3 -4 -10 7 -18 15 -18 17 0 8 8 3 21 -13z"/>
<path d="M8391 9678 c-13 -13 -21 -18 -18 -12 3 6 0 11 -8 11 -8 0 -13 -2 -10
-5 2 -2 -1 -10 -8 -17 -30 -32 -46 -55 -38 -55 6 0 6 -12 2 -27 -4 -16 -7
-128 -6 -250 0 -142 -4 -223 -10 -223 -7 0 -7 -3 0 -8 13 -9 13 -115 0 -124
-6 -5 -5 -11 3 -17 8 -4 14 -12 14 -16 0 -4 -6 -12 -14 -16 -7 -5 -8 -9 -3 -9
12 0 13 -65 2 -76 -4 -4 -2 -13 4 -21 9 -10 8 -17 -1 -28 -7 -8 -8 -15 -3 -15
5 0 10 -13 10 -30 0 -16 -4 -27 -8 -24 -5 2 -2 -8 6 -22 8 -15 12 -31 9 -36
-3 -5 0 -16 8 -25 11 -14 11 -16 -2 -9 -9 4 -8 1 3 -7 9 -8 17 -19 17 -25 0
-6 6 -15 14 -19 7 -4 15 -14 17 -21 3 -8 19 -20 37 -28 24 -10 31 -10 25 -1
-4 7 0 7 10 -2 15 -12 20 -11 39 5 14 12 18 14 13 4 -7 -12 -6 -13 7 -3 8 7
18 9 22 5 4 -4 7 -2 5 3 -4 16 12 45 22 39 5 -3 9 0 9 6 0 6 4 8 10 5 6 -3 7
1 4 9 -3 9 -2 16 4 16 5 0 9 10 8 23 -1 12 3 25 9 29 6 5 6 8 0 8 -6 0 -10 32
-9 78 0 42 -4 83 -9 90 -6 8 -6 12 1 12 6 0 10 9 9 20 -1 11 -5 20 -10 20 -5
0 -4 6 2 14 8 9 8 22 2 38 -5 15 -5 31 0 41 7 11 6 17 -1 17 -6 0 -8 5 -3 13
11 18 13 37 3 37 -5 0 -5 14 0 30 5 19 5 30 -1 30 -6 0 -6 7 1 19 7 14 6 21
-3 24 -9 4 -9 6 0 6 9 1 10 8 4 24 -5 14 -5 30 0 40 7 12 6 17 -2 17 -8 0 -8
4 1 15 10 12 10 15 -1 15 -9 0 -10 3 -4 8 12 9 15 52 3 52 -5 0 -4 9 2 20 8
14 8 20 0 20 -7 0 -8 6 0 19 7 13 7 22 0 26 -6 4 -7 12 -1 22 4 9 5 31 1 49
-5 20 -4 37 2 40 5 3 4 11 -2 19 -7 8 -9 19 -5 25 4 6 1 17 -5 25 -7 8 -10 15
-6 15 3 0 -6 14 -21 30 -28 32 -90 55 -119 43 -12 -4 -15 -3 -10 5 11 18 3 14
-23 -10z"/>
<path d="M10077 9483 c-3 -5 -78 -9 -165 -9 -93 1 -158 -3 -154 -8 3 -5 -1 -6
-8 -1 -19 12 -90 12 -90 0 0 -5 -5 -3 -10 5 -7 11 -10 11 -10 2 0 -7 -5 -10
-11 -7 -10 7 -168 8 -251 2 -21 -1 -38 2 -38 8 0 5 -4 4 -8 -2 -4 -7 -18 -11
-31 -8 -12 2 -34 -1 -49 -8 -36 -16 -83 -58 -76 -68 3 -5 0 -9 -6 -9 -6 0 -8
-4 -5 -10 3 -5 0 -10 -7 -10 -10 0 -10 -2 1 -9 9 -6 10 -10 2 -16 -9 -5 -9
-11 1 -23 11 -13 11 -15 -2 -8 -8 4 -6 0 4 -8 11 -9 16 -16 12 -16 -5 0 6 -13
24 -30 18 -16 36 -27 41 -24 5 3 9 1 9 -4 0 -10 5 -11 90 -16 36 -2 67 -5 70
-6 3 -1 10 -1 15 0 34 8 85 6 85 -3 0 -7 4 -7 12 1 7 7 17 8 30 1 10 -5 18 -6
18 -1 0 5 14 8 30 8 17 0 30 -4 30 -8 0 -5 5 -6 12 -2 18 12 58 11 58 -1 0 -7
3 -6 8 1 9 13 82 13 82 1 0 -6 5 -5 13 0 13 11 76 11 92 1 6 -4 17 -3 25 2 9
5 20 4 29 -3 12 -9 13 -9 8 0 -6 9 3 11 33 8 22 -2 45 -7 50 -10 6 -3 10 -2
10 2 0 5 9 9 20 9 11 0 20 -4 20 -9 0 -5 6 -5 13 1 8 7 18 7 27 2 9 -5 19 -5
27 2 9 7 13 7 13 0 0 -9 20 -9 40 -2 3 1 10 1 15 0 36 -8 61 -6 67 4 6 8 8 8
8 -1 0 -9 7 -10 26 -3 14 6 23 6 20 2 -3 -5 1 -9 9 -9 8 0 12 4 9 9 -3 4 6 4
20 -2 16 -6 26 -5 28 1 2 5 13 11 26 12 12 0 22 6 22 12 0 5 5 3 10 -5 6 -10
10 -11 10 -2 0 6 3 11 8 10 15 -5 72 27 72 40 0 7 4 11 9 8 14 -9 22 24 11 45
-6 10 -8 19 -4 19 4 0 1 8 -7 18 -8 9 -21 29 -29 45 -7 15 -20 27 -27 27 -8 0
-11 5 -8 10 3 6 -3 10 -14 10 -12 0 -21 5 -21 11 0 6 -7 9 -15 6 -8 -4 -17 -2
-20 3 -3 5 -14 7 -25 5 -11 -2 -22 0 -25 6 -4 5 -14 5 -26 -1 -13 -8 -19 -7
-19 0 0 8 -6 8 -20 0 -15 -8 -20 -8 -20 1 0 8 -4 8 -15 -1 -12 -10 -15 -10
-15 0 0 10 -3 10 -15 0 -12 -10 -18 -10 -30 0 -8 7 -15 8 -15 3 0 -5 -7 -10
-15 -10 -8 0 -15 3 -15 7 0 6 -37 5 -50 -1 -13 -6 -36 -4 -41 4 -4 5 -9 5 -12
0z"/>
<path d="M7515 9220 c3 -6 -1 -7 -9 -4 -9 3 -16 1 -16 -5 0 -6 -10 -11 -22
-11 -19 0 -20 -2 -8 -10 13 -8 12 -10 -3 -10 -10 0 -15 -4 -12 -10 3 -5 1 -10
-6 -10 -8 0 -7 -5 2 -17 12 -14 12 -16 0 -8 -11 6 -13 4 -8 -8 4 -10 2 -17 -4
-17 -6 0 -9 -6 -6 -14 3 -7 1 -18 -5 -24 -8 -8 -8 -15 0 -25 7 -8 9 -17 5 -21
-10 -10 -11 -126 -1 -132 5 -3 5 -11 1 -17 -11 -18 -9 -141 2 -149 6 -5 5 -8
-3 -8 -8 0 -10 -5 -6 -12 10 -17 11 -58 2 -64 -5 -3 -6 -9 -3 -13 4 -8 17
-189 17 -233 -1 -10 3 -18 7 -18 7 0 9 -6 13 -47 0 -10 5 -21 9 -24 5 -3 10
-17 11 -32 1 -15 5 -27 8 -27 4 0 12 -16 20 -35 8 -19 17 -35 22 -35 4 0 7 -3
6 -7 0 -5 6 -24 15 -43 9 -19 16 -31 17 -26 0 5 12 -8 26 -29 34 -51 159 -167
168 -157 3 3 8 -2 12 -11 3 -9 14 -14 24 -12 14 3 17 -1 13 -13 -3 -9 -3 -14
2 -10 4 4 14 3 22 -4 7 -6 16 -8 19 -5 4 3 15 -4 26 -16 11 -12 16 -15 12 -7
-5 11 -2 10 13 -3 11 -9 23 -14 26 -10 4 3 7 2 7 -3 0 -5 14 -18 31 -28 22
-13 29 -14 24 -5 -5 8 1 5 13 -5 12 -11 22 -15 22 -11 0 5 7 0 16 -11 8 -10
12 -13 9 -6 -6 11 -3 11 16 0 13 -7 26 -16 29 -19 7 -8 44 -22 53 -21 4 1 7
-2 7 -7 0 -8 16 -15 43 -19 4 -1 14 -7 22 -14 33 -30 43 -37 48 -32 3 3 15 -4
27 -16 11 -11 25 -18 30 -15 6 4 10 -2 10 -11 0 -10 3 -15 6 -12 3 4 22 -11
42 -31 50 -51 73 -81 64 -81 -4 0 -2 -4 5 -8 15 -9 54 -108 46 -116 -4 -3 -2
-6 4 -6 13 0 12 -139 -1 -159 -7 -10 -6 -12 3 -6 8 4 7 -4 -3 -24 -9 -17 -15
-32 -14 -33 3 -4 -33 -68 -47 -85 -5 -7 -16 -19 -22 -27 -7 -8 -13 -20 -13
-26 0 -6 -5 -8 -12 -4 -6 4 -8 3 -5 -3 4 -6 -2 -22 -14 -37 -11 -14 -21 -36
-21 -48 -1 -13 -5 -28 -10 -34 -11 -16 -7 -84 8 -113 7 -13 11 -28 8 -33 -3
-4 1 -8 9 -8 8 0 22 -11 31 -25 13 -19 22 -24 38 -19 14 4 18 2 14 -5 -12 -19
33 -6 50 15 8 10 13 13 9 7 -10 -20 -1 -16 31 14 16 15 28 31 26 36 -1 5 2 5
8 2 12 -8 41 25 34 37 -3 5 2 8 11 8 9 0 13 5 10 10 -3 6 -1 10 5 10 6 0 9 4
6 9 -4 5 -3 11 1 13 11 4 59 100 55 110 -1 4 3 8 10 8 6 0 9 3 5 6 -3 3 3 22
13 42 11 19 17 39 14 44 -3 4 1 11 10 14 8 3 12 12 9 20 -3 8 1 22 8 31 12 14
12 16 -1 8 -12 -7 -13 -6 -4 6 6 8 10 24 9 37 -1 12 2 22 6 22 5 0 7 13 5 30
-2 16 -1 32 2 35 11 11 11 55 0 49 -7 -5 -8 -2 -2 7 11 18 13 59 3 59 -4 0 -6
14 -4 30 2 17 0 30 -4 30 -4 0 -7 10 -6 23 1 12 -2 27 -6 33 -5 6 -10 23 -11
38 -1 14 -6 26 -10 26 -4 0 -8 9 -8 20 0 21 -26 69 -44 82 -6 4 -8 10 -4 13 6
7 -9 29 -50 71 -12 13 -23 27 -25 31 -1 5 -5 7 -9 5 -5 -1 -8 5 -8 14 0 11 -5
14 -17 10 -10 -4 -15 -4 -11 -1 8 8 -39 55 -55 55 -7 0 -19 9 -27 19 -7 11
-17 18 -21 15 -4 -2 -14 3 -23 12 -9 8 -21 12 -27 8 -8 -5 -9 -3 -4 6 6 9 4
12 -7 8 -8 -4 -21 2 -29 13 -7 10 -24 19 -36 19 -13 0 -23 5 -23 10 0 6 -7 10
-15 10 -8 0 -15 5 -15 12 0 6 -3 8 -7 5 -3 -4 -12 1 -20 11 -8 9 -12 11 -8 5
3 -7 1 -13 -4 -13 -6 0 -11 5 -11 11 0 6 -7 8 -16 5 -10 -4 -13 -2 -8 6 5 8 2
9 -10 5 -10 -4 -15 -3 -11 3 3 6 0 11 -7 12 -7 0 -18 2 -24 2 -6 1 -23 9 -37
19 -15 10 -32 15 -37 12 -6 -3 -10 -1 -10 5 0 7 -7 10 -15 6 -8 -3 -15 -2 -15
3 0 5 -20 15 -45 22 -29 9 -40 16 -32 22 8 5 5 7 -8 5 -11 -2 -28 5 -37 16
-10 10 -18 16 -18 12 0 -4 -10 2 -22 14 -12 11 -29 20 -37 20 -14 0 -14 1 -1
10 13 8 12 10 -3 10 -10 0 -16 4 -13 8 3 5 -4 14 -14 22 -10 8 -17 17 -14 22
3 4 0 8 -6 8 -6 0 -9 4 -6 9 4 5 1 11 -4 13 -6 2 -13 12 -14 23 -2 11 -9 19
-14 18 -6 -2 -9 4 -6 12 4 8 1 15 -5 15 -6 0 -8 6 -5 14 3 8 0 17 -5 21 -6 3
-9 11 -5 16 3 5 1 15 -4 22 -5 7 -8 22 -7 35 1 12 -1 22 -5 22 -4 0 -6 10 -5
23 1 12 -2 30 -7 41 -7 13 -7 16 1 12 8 -5 8 0 2 17 -6 16 -6 28 2 36 6 6 7
11 1 11 -5 0 -9 30 -9 68 0 37 -3 82 -6 100 -5 21 -3 32 5 32 6 0 4 5 -4 10
-11 7 -11 10 -2 10 10 0 10 5 2 20 -7 13 -7 20 -1 20 7 0 7 9 1 25 -6 17 -6
25 1 25 6 0 7 6 3 12 -5 7 -8 31 -9 53 0 22 -3 45 -8 52 -4 6 -3 15 3 18 8 5
8 11 0 20 -7 8 -9 19 -6 24 4 5 2 12 -4 16 -6 4 -8 11 -5 16 4 5 1 9 -4 9 -6
0 -11 9 -11 21 0 11 -4 17 -10 14 -5 -3 -10 1 -10 9 0 19 -36 40 -52 30 -6 -4
-8 -3 -5 3 4 6 -8 10 -29 11 -20 1 -32 -3 -29 -8z"/>
<path d="M9451 8723 c-1 -6 -15 -10 -33 -9 -18 1 -39 -2 -45 -7 -9 -6 -13 -5
-13 2 0 8 -6 7 -16 -3 -8 -9 -24 -16 -33 -16 -10 0 -31 -10 -47 -22 -16 -13
-25 -16 -20 -8 4 8 1 7 -7 -2 -8 -10 -17 -18 -21 -18 -4 0 -25 -18 -46 -40
-21 -22 -36 -40 -34 -40 3 0 -2 -7 -10 -16 -9 -8 -16 -22 -16 -30 0 -8 -4 -13
-9 -10 -5 4 -8 -2 -6 -11 1 -10 0 -22 -4 -28 -7 -13 -13 -35 -15 -62 0 -11 -4
-19 -7 -17 -4 2 -5 -26 -4 -62 1 -44 7 -69 16 -75 12 -7 12 -9 -1 -9 -9 0 -11
-3 -5 -8 6 -4 11 -15 13 -26 2 -10 8 -30 14 -45 6 -14 11 -29 10 -33 -1 -5 2
-8 8 -8 6 0 10 -7 10 -15 0 -8 5 -15 10 -15 6 0 10 -5 10 -11 0 -6 19 -30 43
-53 44 -44 45 -45 77 -53 11 -3 20 -10 20 -16 0 -6 3 -8 6 -4 4 3 20 -1 36 -9
23 -12 28 -12 22 -2 -6 10 -4 10 9 -1 17 -13 129 -18 187 -7 14 2 29 5 33 5 5
1 6 5 3 10 -3 4 6 7 19 5 14 -1 25 2 25 7 0 6 4 8 9 5 5 -3 11 1 15 9 3 8 11
15 18 15 15 0 74 71 70 83 -1 5 2 6 7 2 12 -7 30 25 24 42 -2 6 1 15 8 19 7 4
9 3 5 -4 -3 -6 -2 -13 4 -17 8 -5 12 13 9 41 0 3 8 12 18 21 11 9 12 12 3 8
-13 -6 -13 -5 0 7 9 7 15 23 14 36 -1 12 2 22 5 22 11 0 18 106 10 175 -1 17
-12 43 -23 59 -11 17 -14 26 -6 21 8 -5 3 7 -10 25 -13 18 -17 30 -9 25 7 -4
3 3 -11 17 -14 14 -36 37 -49 52 -13 14 -30 26 -38 26 -8 0 -11 5 -7 12 5 8 2
9 -9 5 -10 -3 -17 -2 -17 3 0 13 -98 43 -125 37 -15 -2 -22 0 -18 6 4 6 0 8
-9 4 -9 -3 -21 0 -28 6 -10 9 -11 9 -6 0 4 -8 1 -13 -8 -13 -8 0 -17 6 -19 13
-4 8 -6 8 -6 0z m112 -296 c37 -39 47 -63 34 -77 -9 -10 -9 -11 1 -5 10 5 12
0 9 -21 -8 -45 -19 -66 -49 -96 -36 -35 -57 -46 -85 -43 -13 1 -23 -3 -23 -8
0 -5 -8 -6 -17 -2 -10 4 -26 8 -35 10 -26 6 -58 25 -58 35 0 6 -7 10 -15 10
-8 0 -14 3 -14 8 4 21 -2 32 -13 26 -10 -6 -10 -4 0 8 10 13 10 17 -3 21 -8 4
-13 12 -10 19 2 7 6 24 9 38 7 42 25 82 35 76 5 -3 12 1 15 10 3 8 9 13 13 11
9 -5 34 18 28 25 -3 3 13 4 36 3 22 -1 42 2 45 6 6 11 69 -25 97 -54z"/>
<path d="M10888 8485 c-3 -3 -18 -8 -34 -11 -48 -8 -65 -15 -59 -25 6 -8 -8
-13 -27 -10 -5 0 -8 -6 -8 -14 0 -8 -6 -14 -12 -12 -7 1 -12 -4 -10 -11 1 -8
-2 -11 -6 -8 -5 3 -18 -5 -28 -19 -10 -13 -21 -22 -25 -20 -4 3 -9 -5 -12 -16
-3 -12 -10 -18 -16 -14 -6 3 -11 2 -11 -3 0 -5 -20 -30 -45 -56 -25 -27 -45
-52 -45 -58 0 -5 -4 -6 -10 -3 -5 3 -10 -1 -10 -10 0 -9 -4 -13 -10 -10 -5 3
-10 1 -10 -6 0 -7 -14 -25 -32 -41 -17 -15 -28 -28 -23 -28 5 0 -2 -8 -15 -17
-14 -10 -28 -17 -32 -16 -4 2 -5 -4 -2 -12 4 -9 0 -15 -10 -15 -9 0 -16 -7
-16 -16 0 -8 -4 -12 -10 -9 -5 3 -10 -2 -10 -11 0 -10 -3 -15 -6 -11 -4 3 -22
-9 -40 -28 -19 -19 -38 -35 -44 -35 -5 0 -9 -3 -8 -7 3 -9 -58 -73 -68 -73 -4
0 -27 -20 -51 -45 -25 -26 -48 -43 -55 -39 -7 4 -8 3 -4 -4 4 -7 2 -12 -4 -12
-6 0 -8 -4 -5 -10 6 -9 -8 -14 -27 -11 -5 0 -8 -3 -8 -9 0 -9 -47 -60 -56 -60
-3 0 -36 -31 -75 -70 -38 -38 -74 -70 -80 -70 -6 0 -8 -4 -5 -9 3 -5 -4 -11
-15 -14 -14 -4 -18 -10 -13 -19 4 -7 4 -10 -1 -6 -4 4 -24 -6 -45 -22 -29 -23
-40 -27 -50 -17 -8 7 -11 8 -7 1 4 -7 -3 -11 -18 -11 -14 0 -22 4 -18 10 4 6
1 7 -8 1 -20 -12 -92 -12 -101 1 -5 7 -8 6 -8 -1 0 -6 -19 -10 -45 -10 -25 1
-45 -2 -45 -6 0 -4 -7 -5 -15 -2 -8 4 -15 1 -15 -5 0 -6 -7 -8 -15 -5 -8 4
-15 1 -15 -5 0 -6 -7 -11 -15 -11 -8 0 -15 -5 -15 -11 0 -5 -5 -7 -12 -3 -8 5
-9 2 -5 -9 4 -10 2 -16 -6 -14 -7 1 -11 -6 -9 -15 2 -10 -1 -18 -7 -18 -8 0
-8 -21 -1 -40 1 -3 2 -8 1 -12 0 -5 4 -8 10 -8 6 0 8 -7 5 -16 -3 -8 -2 -12 4
-9 6 3 10 1 10 -5 0 -6 5 -8 10 -5 6 3 10 -1 10 -10 0 -9 5 -13 10 -10 6 3 10
2 10 -3 0 -6 7 -13 16 -16 9 -4 13 -2 8 5 -3 6 4 4 17 -4 13 -8 32 -13 42 -12
9 2 17 0 17 -4 0 -11 223 -10 238 2 8 6 12 6 12 -2 0 -7 5 -9 13 -4 6 4 18 9
25 10 6 2 18 4 25 6 28 6 97 52 97 64 0 7 3 12 8 11 9 -3 38 21 115 97 34 33
64 59 69 58 4 -2 5 4 2 12 -4 8 -2 15 3 15 5 0 33 23 61 51 29 28 52 48 52 45
0 -4 14 9 31 29 17 19 36 32 42 28 5 -3 7 -2 4 4 -3 5 7 20 24 33 16 14 29 30
29 37 0 7 4 12 9 10 5 -1 23 13 40 30 17 18 31 30 31 26 0 -3 9 4 20 17 11 13
20 28 20 33 0 6 2 8 5 5 7 -7 81 64 77 74 -1 5 1 7 5 7 20 -3 34 2 28 11 -3 6
-2 10 4 10 6 0 40 28 75 63 81 78 104 97 117 97 5 0 7 5 4 10 -3 6 -1 10 5 10
6 0 8 5 4 12 -5 8 -2 9 10 5 9 -4 15 -3 13 1 -6 9 19 33 27 25 3 -4 6 1 6 10
0 10 4 16 9 15 5 -2 20 10 35 25 14 15 26 25 26 22 0 -3 6 0 14 7 8 7 12 16
10 20 -2 4 5 9 16 13 18 6 24 17 21 38 0 4 4 6 11 5 7 -2 13 3 14 10 1 6 2 17
3 23 0 5 6 7 11 4 6 -3 10 1 10 9 0 21 0 21 10 57 8 28 8 29 -7 17 -11 -8 -14
-8 -10 -1 4 6 -2 27 -13 45 -11 18 -20 29 -20 25 0 -4 -10 -2 -22 5 -30 16
-40 17 -57 4 -11 -8 -13 -8 -7 2 7 12 4 16 -6 7z"/>
<path d="M7285 7449 c-4 -6 -14 -8 -22 -5 -9 4 -11 2 -7 -5 4 -7 1 -10 -7 -7
-8 3 -29 -1 -46 -8 -18 -7 -33 -10 -33 -6 0 4 -7 -2 -15 -12 -8 -11 -15 -14
-15 -8 0 7 -7 5 -19 -5 -38 -35 -49 -42 -55 -36 -6 6 -10 -12 -7 -29 0 -5 -5
-7 -11 -5 -7 1 -12 -4 -10 -11 1 -8 -2 -11 -7 -8 -11 7 -33 -18 -24 -27 3 -4
0 -7 -7 -7 -7 0 -10 -3 -7 -6 4 -4 -3 -15 -14 -25 -14 -12 -16 -19 -8 -24 8
-6 8 -9 -1 -15 -7 -4 -13 -19 -13 -34 -1 -14 -5 -26 -9 -26 -3 0 -5 -8 -4 -17
2 -10 -2 -21 -8 -25 -7 -5 -7 -8 3 -8 11 0 11 -3 0 -16 -7 -9 -9 -18 -3 -22 5
-4 10 -25 11 -46 1 -21 8 -43 15 -47 10 -7 10 -9 -2 -9 -9 0 -11 -3 -5 -8 6
-4 17 -16 25 -26 11 -15 12 -18 1 -12 -9 6 -12 5 -9 -5 3 -8 11 -13 17 -11 7
1 10 -2 7 -7 -9 -13 35 -91 47 -84 6 3 7 2 4 -4 -7 -11 57 -83 73 -83 5 0 10
-3 10 -8 0 -4 20 -16 45 -27 25 -11 45 -24 45 -30 0 -5 4 -4 9 3 7 11 11 11
23 -2 11 -11 18 -12 27 -3 8 8 11 8 11 -1 0 -10 5 -10 20 -2 12 6 20 7 20 1 0
-9 17 -10 35 0 6 2 25 4 43 4 17 0 32 3 32 7 0 4 3 7 8 6 14 -3 62 14 62 23 0
5 7 9 15 9 8 0 15 5 15 11 0 5 5 7 10 4 6 -3 10 -1 10 6 0 7 3 10 6 6 9 -9 44
25 37 37 -3 6 -3 8 1 4 10 -8 46 23 46 40 0 7 7 15 15 18 8 4 13 9 10 14 -2 4
5 16 15 28 11 12 20 30 20 42 0 11 4 20 9 20 9 0 24 52 25 88 0 12 3 22 7 22
8 0 3 45 -7 61 -5 8 -3 9 6 4 9 -5 11 -4 6 4 -4 6 -9 24 -12 39 -3 15 -8 36
-11 47 -4 11 -6 26 -4 34 1 8 -2 10 -10 5 -9 -5 -10 -2 -6 9 4 12 1 17 -9 17
-11 0 -15 6 -11 20 3 13 0 20 -10 20 -8 0 -12 3 -10 8 3 4 -16 27 -41 52 -25
25 -41 38 -37 30 8 -13 6 -13 -8 -1 -9 7 -15 17 -12 20 2 4 -1 8 -8 9 -31 3
-49 9 -57 21 -6 11 -9 11 -13 0 -4 -11 -6 -11 -6 -1 -1 7 -5 10 -11 7 -5 -3
-10 -1 -10 6 0 10 -3 10 -12 1 -8 -8 -15 -8 -24 -1 -14 12 -110 17 -120 6 -11
-11 -26 -8 -19 3 3 6 4 10 1 10 -3 0 -8 -5 -11 -11z m65 -250 c0 7 5 9 13 4
12 -8 32 -13 55 -15 6 -1 12 -5 12 -10 0 -5 4 -7 9 -4 5 3 19 -7 32 -23 13
-16 26 -28 29 -26 3 2 6 -25 5 -61 0 -46 -4 -67 -15 -74 -8 -5 -11 -10 -6 -10
5 0 -2 -9 -15 -21 -13 -12 -23 -25 -22 -29 1 -4 -6 -6 -17 -3 -12 3 -22 -1
-25 -9 -11 -28 -155 -5 -155 24 0 4 -7 8 -17 8 -9 0 -14 3 -10 6 3 4 -1 13 -9
21 -8 9 -18 28 -21 44 -3 18 -10 26 -17 22 -6 -4 -5 1 3 10 7 9 10 17 6 17 -4
0 -2 7 5 15 7 8 10 21 7 29 -4 11 -1 13 11 9 9 -3 14 -3 10 2 -8 9 11 50 19
41 7 -7 32 17 27 26 -3 4 7 5 20 2 14 -2 28 1 31 6 5 8 11 7 21 -1 11 -9 14
-9 14 0z"/>
<path d="M10795 7441 c2 -4 -9 -6 -26 -5 -16 1 -29 -2 -29 -6 0 -5 -9 -7 -20
-5 -11 2 -20 0 -20 -6 0 -5 -3 -8 -7 -8 -20 3 -34 -2 -28 -11 3 -5 0 -7 -8 -4
-7 2 -29 -10 -47 -28 -18 -18 -29 -26 -25 -18 8 13 7 13 -8 1 -10 -8 -15 -16
-13 -18 2 -3 -3 -13 -12 -23 -36 -40 -43 -51 -45 -70 -1 -11 -4 -20 -7 -20 -4
0 -7 -6 -8 -12 0 -7 -4 -24 -8 -38 -9 -32 -13 -192 -5 -205 3 -5 6 -15 7 -22
6 -38 27 -82 36 -77 6 4 8 2 4 -4 -3 -6 -2 -13 4 -17 6 -4 8 -11 5 -16 -4 -5
-2 -9 3 -9 5 0 15 -11 22 -25 7 -13 17 -22 22 -19 5 3 8 2 7 -3 -4 -23 2 -35
17 -29 8 3 12 2 9 -4 -3 -6 -2 -10 4 -10 5 0 23 -11 39 -25 16 -13 32 -22 36
-18 3 3 6 1 6 -6 0 -7 4 -10 9 -6 5 3 13 0 16 -6 4 -5 13 -8 21 -5 7 3 16 1
19 -4 3 -5 16 -10 28 -10 80 -2 122 2 129 13 6 9 8 8 8 -3 0 -13 1 -13 10 0 5
8 10 11 10 7 0 -4 10 -2 23 5 12 7 24 13 27 14 3 1 15 5 28 9 12 4 22 11 22
16 0 5 7 9 15 9 8 0 15 5 15 10 0 6 5 10 10 10 14 0 50 37 43 44 -4 3 0 6 9 6
8 0 21 11 28 25 7 14 17 25 22 25 5 0 6 5 3 10 -3 6 -1 10 5 10 7 0 9 7 6 16
-3 8 -2 13 3 10 9 -6 35 44 26 52 -3 3 3 14 12 25 10 11 12 17 6 13 -15 -9
-18 10 -3 19 6 4 8 10 5 15 -3 5 -1 19 5 30 6 11 7 20 3 20 -4 0 -8 15 -8 33
1 17 -4 35 -10 39 -6 5 -5 8 4 8 10 0 10 5 -3 25 -9 14 -14 30 -11 34 3 5 0
15 -7 23 -7 7 -14 19 -15 26 -3 12 -30 47 -66 84 -10 10 -22 16 -28 13 -5 -4
-8 -1 -7 7 2 7 -3 12 -9 11 -7 -2 -13 5 -13 15 0 12 -3 13 -8 5 -6 -9 -12 -7
-22 7 -8 11 -22 20 -32 20 -10 0 -18 5 -18 11 0 5 -4 8 -8 5 -4 -2 -14 -1 -22
4 -9 5 -20 4 -28 -2 -7 -6 -12 -7 -11 -2 4 21 -2 24 -22 13 -12 -6 -19 -7 -15
-1 4 6 -16 10 -54 10 -33 -1 -58 -4 -55 -7z m93 -234 c6 3 12 0 12 -7 0 -6 4
-9 9 -5 5 3 12 1 16 -5 4 -6 11 -8 16 -5 5 4 9 1 9 -4 0 -6 6 -11 14 -11 8 0
17 -11 20 -25 4 -14 10 -23 15 -20 11 6 19 -13 16 -42 -1 -13 2 -23 7 -23 5 0
6 -6 1 -12 -4 -7 -9 -21 -10 -31 -4 -23 -33 -67 -45 -67 -5 0 -6 -4 -3 -10 3
-5 -3 -10 -15 -10 -12 0 -19 -4 -16 -8 2 -4 -7 -7 -22 -7 -15 1 -37 -2 -48 -6
-14 -5 -30 -2 -44 8 -18 13 -21 13 -15 2 4 -8 -2 -4 -14 9 -12 12 -27 19 -33
16 -6 -4 -8 -3 -4 4 3 6 -2 15 -11 21 -10 6 -14 11 -10 11 5 0 1 7 -7 16 -9 8
-14 20 -11 25 4 5 2 9 -4 9 -14 0 -7 55 9 74 6 9 9 19 6 24 -3 4 4 14 14 22
10 8 16 18 13 23 -3 6 -1 7 5 3 6 -3 18 1 26 10 12 12 16 12 17 2 0 -10 2 -10
6 0 2 6 14 12 24 12 12 0 17 4 13 11 -4 8 -1 8 12 1 11 -5 25 -7 32 -5z"/>
<path d="M9360 6699 c0 -5 -7 -6 -15 -3 -8 4 -15 1 -15 -5 0 -6 -5 -11 -11
-11 -5 0 -7 6 -4 13 4 6 1 5 -7 -4 -7 -9 -21 -15 -31 -13 -9 1 -15 -1 -12 -6
3 -4 -3 -14 -12 -21 -12 -10 -14 -10 -9 -1 18 29 -16 6 -82 -59 -47 -45 -72
-83 -68 -101 2 -10 0 -18 -5 -18 -5 0 -9 -7 -9 -16 0 -8 -4 -13 -8 -10 -4 2
-8 -3 -9 -12 -1 -9 -4 -43 -7 -74 -4 -36 -3 -59 4 -63 8 -5 7 -12 -2 -23 -11
-12 -11 -16 0 -20 10 -3 10 -7 1 -18 -8 -10 -8 -14 0 -14 6 0 11 -11 11 -25 0
-14 4 -25 8 -25 5 0 9 -6 10 -12 3 -34 10 -52 26 -63 10 -7 17 -17 17 -22 0
-14 66 -93 73 -86 3 3 6 0 6 -7 0 -7 8 -20 18 -29 28 -25 35 -50 38 -128 1
-52 -2 -71 -10 -66 -8 5 -8 3 0 -8 12 -15 13 -77 1 -96 -4 -6 -4 -14 1 -17 9
-5 7 -89 -3 -105 -3 -6 -1 -11 5 -11 6 0 8 -5 3 -12 -10 -17 -10 -39 0 -60 4
-10 4 -18 -1 -18 -11 0 -8 -82 3 -100 5 -8 4 -11 -3 -6 -7 4 -10 -1 -9 -14 1
-11 5 -20 9 -20 4 0 8 -11 8 -25 0 -14 5 -25 11 -25 5 0 7 -5 4 -10 -3 -6 1
-13 9 -16 9 -3 16 -10 16 -16 0 -17 51 -57 66 -51 8 3 14 0 14 -7 0 -6 5 -8
13 -3 6 4 18 8 26 10 8 1 17 6 20 11 3 4 14 12 25 15 12 5 16 13 12 24 -4 10
-4 14 0 11 8 -9 33 15 27 26 -3 4 -1 11 5 15 12 7 19 72 9 88 -4 6 -3 14 2 17
5 3 8 21 7 38 -2 18 2 36 8 41 7 4 8 10 1 15 -6 4 -10 82 -10 197 0 114 -4
196 -10 204 -7 11 -7 13 3 7 11 -6 17 5 13 27 0 4 4 7 9 7 6 0 10 7 10 15 0 8
6 12 13 9 7 -2 25 6 40 20 14 13 28 21 31 19 3 -3 8 2 12 11 3 9 10 13 15 10
5 -3 12 2 15 10 3 9 13 16 21 16 8 0 11 5 8 10 -3 6 -1 10 6 10 7 0 10 3 6 6
-3 3 5 16 19 29 13 12 24 30 24 39 0 10 5 14 10 11 9 -6 14 8 11 28 0 4 3 7 9
7 6 0 10 9 10 19 0 11 5 23 10 26 6 4 8 11 5 16 -4 5 -2 9 4 9 5 0 8 9 6 20
-2 11 0 20 4 20 5 0 8 38 8 85 0 47 -4 85 -8 85 -5 0 -6 6 -3 14 3 7 -1 20 -9
27 -15 15 -17 21 -17 45 0 8 -4 12 -10 9 -5 -3 -10 1 -10 10 0 18 -57 78 -83
88 -10 4 -17 11 -17 17 0 6 -4 9 -9 5 -5 -3 -15 1 -23 8 -7 8 -21 13 -31 11
-9 -1 -17 2 -17 7 0 5 -9 9 -20 9 -11 0 -20 5 -20 10 0 6 -13 10 -29 10 -17 0
-33 5 -36 10 -4 7 -12 7 -24 0 -10 -5 -21 -7 -24 -4 -10 11 -42 11 -54 1 -8
-6 -13 -6 -13 0 0 5 -7 10 -15 10 -8 0 -15 -4 -15 -8z m148 -237 c2 -7 8 -10
13 -6 5 3 12 -2 15 -10 3 -9 10 -16 16 -16 14 0 38 -27 31 -34 -4 -3 -1 -6 5
-6 7 0 11 -3 11 -7 -1 -5 -1 -10 1 -13 1 -3 3 -15 6 -28 3 -17 1 -21 -8 -16
-10 6 -10 4 0 -8 9 -12 10 -18 2 -23 -6 -4 -9 -13 -6 -21 3 -8 1 -14 -4 -14
-6 0 -10 -4 -10 -10 0 -13 -43 -56 -52 -52 -5 1 -8 -3 -8 -9 0 -5 -4 -7 -10
-4 -5 3 -10 1 -10 -5 0 -7 -7 -10 -15 -7 -8 4 -17 2 -20 -3 -7 -11 -62 -2 -95
15 -30 16 -61 51 -53 59 4 3 0 6 -7 6 -7 0 -10 3 -7 7 4 3 2 12 -4 20 -8 9 -8
13 0 13 7 0 8 8 1 25 -7 18 -6 25 3 26 9 0 9 2 -1 6 -10 4 -10 8 -1 19 6 8 8
14 5 14 -4 0 0 7 8 16 9 8 14 20 11 25 -4 5 1 9 9 9 9 0 16 5 16 10 0 6 6 10
14 10 8 0 16 6 19 13 6 17 119 16 125 -1z"/>
<path d="M10645 6169 c-4 -6 -13 -8 -21 -5 -8 3 -14 1 -14 -5 0 -6 -7 -9 -15
-5 -8 3 -15 1 -15 -5 0 -6 -4 -7 -10 -4 -5 3 -10 1 -10 -4 0 -6 -7 -11 -16
-11 -8 0 -12 -4 -9 -10 6 -9 -8 -14 -28 -11 -5 1 -7 -2 -4 -6 2 -5 -4 -16 -15
-25 -10 -10 -18 -15 -18 -11 0 4 -7 -3 -16 -15 -8 -12 -22 -22 -31 -22 -9 0
-13 -6 -9 -15 3 -9 0 -15 -8 -15 -7 0 -22 -11 -34 -25 -12 -14 -27 -25 -34
-25 -6 0 -9 -3 -5 -6 6 -6 -28 -44 -40 -44 -5 0 -26 -19 -48 -43 -22 -23 -41
-41 -42 -39 -7 6 -24 1 -19 -6 2 -4 -9 -18 -25 -31 -16 -13 -29 -28 -29 -35 0
-6 -9 -17 -21 -24 -12 -8 -18 -19 -15 -28 3 -8 1 -14 -5 -14 -6 0 -7 -4 -4
-10 3 -5 1 -10 -4 -10 -6 0 -11 -7 -11 -16 0 -8 5 -12 11 -9 6 4 5 -2 -2 -13
-11 -17 -10 -24 2 -38 11 -14 11 -16 1 -10 -12 7 -12 4 -1 -15 16 -31 35 -50
43 -42 3 4 6 1 6 -6 0 -7 5 -9 10 -6 6 3 10 2 10 -4 0 -5 9 -9 20 -8 11 1 20
4 20 7 0 3 11 7 25 8 33 2 77 31 68 45 -3 5 -1 7 5 3 6 -3 13 -2 17 4 4 6 11
7 17 4 6 -4 9 -3 6 2 -6 8 15 35 27 34 20 -1 25 1 24 8 -3 16 1 32 9 31 19 -3
33 2 27 11 -3 6 1 13 10 17 23 8 275 260 275 273 0 6 5 8 10 5 6 -3 10 3 10
15 0 12 3 19 8 17 7 -5 26 11 30 26 1 4 2 8 3 10 9 28 13 72 10 105 -1 6 -8
12 -16 12 -8 0 -15 5 -15 10 0 6 -9 10 -20 10 -11 0 -20 4 -20 9 0 5 -12 8
-26 5 -16 -3 -23 -1 -19 6 3 5 4 10 1 10 -3 0 -8 -5 -11 -11z"/>
<path d="M7314 6141 c-2 -2 -23 -5 -46 -6 -52 -2 -98 -14 -98 -26 0 -5 -7 -5
-17 -2 -9 4 -14 2 -10 -3 3 -6 -3 -17 -14 -24 -20 -15 -28 -90 -9 -90 6 0 9
-6 8 -12 -2 -7 3 -12 10 -10 7 1 12 -5 10 -15 -2 -10 2 -17 10 -15 6 1 12 -5
12 -14 0 -8 5 -12 10 -9 6 3 10 1 10 -5 0 -6 5 -8 10 -5 6 3 10 3 10 -2 0 -4
16 -13 35 -19 24 -8 32 -8 28 0 -5 7 -2 7 8 0 20 -17 191 -26 182 -11 -5 9 -3
9 8 2 8 -7 74 -10 166 -10 84 1 150 -2 147 -7 -3 -4 1 -8 9 -8 14 0 17 -10 19
-67 1 -18 6 -33 12 -33 7 0 7 -3 1 -8 -13 -9 -16 -42 -3 -42 5 0 6 -5 3 -10
-4 -6 1 -22 10 -37 9 -14 12 -22 6 -19 -12 8 -15 -6 -4 -18 4 -4 9 -19 11 -34
2 -15 8 -29 13 -30 6 -3 5 -9 -2 -18 -9 -11 -9 -14 1 -14 7 0 10 -7 6 -15 -3
-8 -1 -15 5 -15 6 0 8 -4 4 -9 -3 -5 -1 -12 5 -16 5 -3 10 -15 10 -25 0 -10
10 -27 23 -37 13 -10 25 -22 26 -28 2 -5 7 -9 13 -7 5 1 6 -2 3 -8 -4 -7 2
-14 14 -17 12 -3 21 -10 21 -15 0 -5 4 -7 9 -4 5 4 11 2 13 -4 1 -5 14 -11 28
-12 14 -2 28 -6 31 -11 3 -4 14 -9 25 -12 10 -2 33 -8 51 -14 17 -5 34 -7 37
-3 3 3 6 0 6 -7 0 -9 5 -9 20 -1 11 6 20 7 20 2 0 -4 9 -8 20 -9 11 -1 18 2
16 6 -3 4 5 7 17 6 12 -1 27 0 32 4 6 3 15 6 20 7 26 3 55 17 55 26 0 6 7 8
15 4 8 -3 15 -1 15 5 0 6 4 8 9 4 6 -3 14 3 20 12 6 10 11 14 11 9 0 -5 8 1
19 12 10 12 21 19 24 15 4 -3 9 2 13 11 3 9 10 13 15 10 5 -3 9 -1 9 3 0 5 15
26 34 46 18 20 30 37 24 37 -5 0 0 10 11 21 11 12 23 35 26 50 4 16 10 29 15
29 4 0 6 9 3 20 -3 11 -1 20 4 20 5 0 10 12 11 28 0 15 3 44 4 65 2 21 1 40
-3 42 -3 3 -5 18 -4 35 1 16 -1 30 -5 30 -4 0 -7 7 -8 15 -1 8 -3 22 -4 30 -1
8 -5 15 -10 15 -4 0 -8 7 -8 15 0 8 -4 15 -10 15 -5 0 -10 7 -10 15 0 8 -4 15
-10 15 -5 0 -10 7 -10 15 0 8 -4 15 -10 15 -5 0 -10 8 -10 17 0 9 -3 13 -7 10
-3 -4 -13 2 -20 13 -8 11 -19 18 -24 15 -5 -4 -6 2 -2 12 3 10 2 15 -2 11 -5
-5 -15 1 -23 13 -8 11 -20 18 -28 15 -8 -3 -14 1 -14 9 0 8 -3 14 -7 14 -21
-3 -33 2 -27 12 4 7 1 10 -7 7 -8 -3 -23 2 -33 11 -16 13 -18 13 -11 1 7 -13
6 -13 -7 -2 -8 7 -32 14 -51 15 -20 2 -40 6 -43 10 -4 4 -13 2 -21 -4 -7 -7
-13 -7 -13 -2 0 6 -118 10 -315 9 -203 -1 -315 -5 -315 -11 0 -7 -3 -7 -8 0
-4 6 -20 10 -37 10 -16 0 -33 -4 -37 -10 -5 -7 -8 -7 -8 0 0 9 -187 15 -196 6z
m919 -276 c20 1 37 -3 37 -8 0 -4 4 -6 9 -3 23 15 150 -82 136 -104 -3 -6 -1
-10 5 -10 17 0 7 -61 -18 -110 -15 -28 -35 -51 -53 -59 -16 -7 -27 -16 -25
-20 3 -4 -5 -8 -17 -9 -79 -7 -124 -7 -134 1 -7 5 -13 6 -13 1 0 -5 -7 2 -16
14 -8 12 -20 20 -25 17 -5 -4 -9 1 -9 9 0 9 -4 16 -10 16 -5 0 -9 6 -7 13 1 6
-5 11 -13 9 -8 -2 -12 0 -8 4 4 4 2 14 -5 22 -10 13 -9 14 3 7 12 -7 13 -6 3
6 -6 8 -10 30 -9 49 2 19 -1 38 -6 41 -11 7 43 110 54 102 5 -2 14 0 21 5 15
12 50 20 57 12 3 -3 22 -5 43 -5z"/>
</g>
</svg>
